<svg version="1.1" id="Layer_1" xmlns="http://www.w3.org/2000/svg" xmlns:xlink="http://www.w3.org/1999/xlink" x="0px" y="0px"
	 width="100%" viewBox="0 0 285 285" enable-background="new 0 0 285 285" xml:space="preserve">
<path fill="#FFFFFF" opacity="1.000000" stroke="none" 
	d="
M173.000000,286.000000 
	C115.333344,286.000000 58.166679,286.000000 1.000015,286.000000 
	C1.000010,191.000015 1.000010,96.000038 1.000005,1.000041 
	C95.999969,1.000027 190.999939,1.000027 285.999939,1.000014 
	C285.999939,95.999962 285.999939,190.999924 285.999969,285.999939 
	C248.500000,286.000000 211.000000,286.000000 173.000000,286.000000 
M67.922081,212.577774 
	C69.435524,214.023544 70.742592,216.278671 72.509796,216.729279 
	C75.302994,217.441528 78.172432,216.941696 78.078865,221.262985 
	C78.018059,224.071732 79.575745,227.094650 78.961349,229.677414 
	C77.358475,236.415436 83.691925,243.753098 90.675766,242.972885 
	C94.627724,242.531372 98.669434,242.893204 102.500641,242.893204 
	C103.282387,248.597733 103.311165,248.522369 107.598167,250.159164 
	C108.532425,250.515884 109.446266,251.486801 109.917725,252.406464 
	C113.801262,259.981781 116.043983,260.847168 124.506462,258.786713 
	C128.033676,257.927887 131.556503,257.817627 133.511246,262.357147 
	C134.057266,263.625183 136.900116,264.338470 138.767471,264.525208 
	C145.495667,265.198212 152.359558,264.976379 158.973694,266.181732 
	C164.222336,267.138214 167.869415,266.057831 170.240875,261.030762 
	C170.798721,259.848206 172.270279,258.328461 173.362015,258.295227 
	C178.908676,258.126343 184.518463,257.990143 190.005157,258.664398 
	C193.252716,259.063538 194.851822,258.368286 195.317795,255.329697 
	C195.657135,253.116928 195.663971,250.853165 195.755096,249.536072 
	C201.697296,249.025436 207.629272,248.642609 213.528229,247.970032 
	C218.573730,247.394775 220.312851,244.641785 217.740967,240.193939 
	C215.925308,237.053894 216.872177,234.993591 218.260529,232.499695 
	C219.201492,230.809433 220.026489,229.054611 221.022339,227.094498 
	C225.339188,228.863083 226.514938,226.264679 227.024261,222.627655 
	C227.252457,220.998138 227.702118,219.383957 228.203690,217.811432 
	C229.537628,213.629425 229.272476,209.883072 226.802933,205.955185 
	C225.431122,203.773285 224.987778,200.595276 225.165436,197.935654 
	C225.560760,192.017776 226.805984,186.160599 227.319748,180.245255 
	C227.633347,176.634506 227.571793,173.039230 222.616699,171.851059 
	C218.847351,170.947205 217.254532,167.805542 216.960693,163.949646 
	C216.800232,161.843842 216.580231,159.609009 215.745651,157.715012 
	C213.809433,153.320999 214.966660,147.686691 210.370026,144.306320 
	C209.990280,144.027069 210.649185,142.471970 210.655258,141.508591 
	C210.686661,136.539703 212.381256,130.527145 210.175781,126.893959 
	C207.957611,123.239868 203.303040,120.041489 199.401566,117.410484 
	C196.449066,115.419434 195.109756,113.759079 195.016388,110.611870 
	C194.942307,108.115501 195.000244,105.615219 195.000061,103.116669 
	C194.999466,94.967659 193.137161,92.930916 185.206116,90.838181 
	C183.339401,90.345627 180.862274,88.231766 180.548157,86.518654 
	C179.557938,81.118210 179.413559,75.557060 179.043335,70.051277 
	C178.891449,67.792641 179.269836,65.475105 178.930344,63.257328 
	C178.288300,59.063194 175.577164,58.033905 172.233459,60.483112 
	C167.729919,63.781887 164.457245,62.389603 164.048416,56.647366 
	C163.484741,48.730682 163.438995,40.777649 162.912903,32.857365 
	C162.793823,31.064640 162.051453,28.763592 160.766953,27.787430 
	C159.881332,27.114401 157.564423,28.305502 155.893219,28.689770 
	C153.081146,29.336359 150.261200,30.595837 147.467255,30.536173 
	C142.069748,30.420912 136.690384,29.264914 131.298157,29.222502 
	C129.884628,29.211382 127.390518,31.577282 127.211220,33.069996 
	C126.442368,39.470760 126.165176,45.950722 126.084213,52.406521 
	C126.034668,56.356495 126.775314,60.310112 126.953476,64.271431 
	C127.071747,66.901276 126.065865,68.208054 122.959511,67.559853 
	C117.880226,66.499962 116.564720,67.775726 115.947548,72.967407 
	C115.769958,74.461334 115.060280,75.949760 114.345230,77.309616 
	C112.996391,79.874771 111.707420,82.534027 109.932961,84.792236 
	C108.600830,86.487526 106.510925,88.848717 104.822060,88.797890 
	C93.768913,88.465202 95.897736,90.417732 93.970909,98.872955 
	C93.836548,99.462563 93.586288,100.025764 93.329201,100.779190 
	C90.347504,100.269585 86.893356,96.648582 85.062187,101.292213 
	C83.998711,103.989098 84.430397,107.275589 84.176888,110.452034 
	C80.777565,109.834351 79.030983,111.348602 78.939629,115.214325 
	C78.842125,119.339928 78.402817,123.463501 77.963936,127.572075 
	C77.781006,129.284622 77.213524,130.956100 77.012688,131.820618 
	C74.126770,131.820618 71.020370,130.974625 70.121529,132.022415 
	C68.830482,133.527374 69.327248,136.461258 68.716240,138.690750 
	C68.301308,140.204788 67.454308,141.673248 66.515846,142.953415 
	C65.206482,144.739578 62.442047,146.280228 62.368095,148.014114 
	C61.967838,157.398422 60.492451,167.243530 62.730400,176.083557 
	C64.751663,184.067642 63.549194,191.282837 63.210571,198.867783 
	C62.992012,203.763306 61.632999,209.060287 67.922081,212.577774 
z"/>
<path fill="#FFFFFF" opacity="1.000000" stroke="none" 
	d="
M67.614487,212.369232 
	C61.632999,209.060287 62.992012,203.763306 63.210571,198.867783 
	C63.549194,191.282837 64.751663,184.067642 62.730400,176.083557 
	C60.492451,167.243530 61.967838,157.398422 62.368095,148.014114 
	C62.442047,146.280228 65.206482,144.739578 66.515846,142.953415 
	C67.454308,141.673248 68.301308,140.204788 68.716240,138.690750 
	C69.327248,136.461258 68.830482,133.527374 70.121529,132.022415 
	C71.020370,130.974625 74.126770,131.820618 77.012688,131.820618 
	C77.213524,130.956100 77.781006,129.284622 77.963936,127.572075 
	C78.402817,123.463501 78.842125,119.339928 78.939629,115.214325 
	C79.030983,111.348602 80.777565,109.834351 84.176888,110.452034 
	C84.430397,107.275589 83.998711,103.989098 85.062187,101.292213 
	C86.893356,96.648582 90.347504,100.269585 93.329201,100.779190 
	C93.586288,100.025764 93.836548,99.462563 93.970909,98.872955 
	C95.897736,90.417732 93.768913,88.465202 104.822060,88.797890 
	C106.510925,88.848717 108.600830,86.487526 109.932961,84.792236 
	C111.707420,82.534027 112.996391,79.874771 114.345230,77.309616 
	C115.060280,75.949760 115.769958,74.461334 115.947548,72.967407 
	C116.564720,67.775726 117.880226,66.499962 122.959511,67.559853 
	C126.065865,68.208054 127.071747,66.901276 126.953476,64.271431 
	C126.775314,60.310112 126.034668,56.356495 126.084213,52.406521 
	C126.165176,45.950722 126.442368,39.470760 127.211220,33.069996 
	C127.390518,31.577282 129.884628,29.211382 131.298157,29.222502 
	C136.690384,29.264914 142.069748,30.420912 147.467255,30.536173 
	C150.261200,30.595837 153.081146,29.336359 155.893219,28.689770 
	C157.564423,28.305502 159.881332,27.114401 160.766953,27.787430 
	C162.051453,28.763592 162.793823,31.064640 162.912903,32.857365 
	C163.438995,40.777649 163.484741,48.730682 164.048416,56.647366 
	C164.457245,62.389603 167.729919,63.781887 172.233459,60.483112 
	C175.577164,58.033905 178.288300,59.063194 178.930344,63.257328 
	C179.269836,65.475105 178.891449,67.792641 179.043335,70.051277 
	C179.413559,75.557060 179.557938,81.118210 180.548157,86.518654 
	C180.862274,88.231766 183.339401,90.345627 185.206116,90.838181 
	C193.137161,92.930916 194.999466,94.967659 195.000061,103.116669 
	C195.000244,105.615219 194.942307,108.115501 195.016388,110.611870 
	C195.109756,113.759079 196.449066,115.419434 199.401566,117.410484 
	C203.303040,120.041489 207.957611,123.239868 210.175781,126.893959 
	C212.381256,130.527145 210.686661,136.539703 210.655258,141.508591 
	C210.649185,142.471970 209.990280,144.027069 210.370026,144.306320 
	C214.966660,147.686691 213.809433,153.320999 215.745651,157.715012 
	C216.580231,159.609009 216.800232,161.843842 216.960693,163.949646 
	C217.254532,167.805542 218.847351,170.947205 222.616699,171.851059 
	C227.571793,173.039230 227.633347,176.634506 227.319748,180.245255 
	C226.805984,186.160599 225.560760,192.017776 225.165436,197.935654 
	C224.987778,200.595276 225.431122,203.773285 226.802933,205.955185 
	C229.272476,209.883072 229.537628,213.629425 228.203690,217.811432 
	C227.702118,219.383957 227.252457,220.998138 227.024261,222.627655 
	C226.514938,226.264679 225.339188,228.863083 221.022339,227.094498 
	C220.026489,229.054611 219.201492,230.809433 218.260529,232.499695 
	C216.872177,234.993591 215.925308,237.053894 217.740967,240.193939 
	C220.312851,244.641785 218.573730,247.394775 213.528229,247.970032 
	C207.629272,248.642609 201.697296,249.025436 195.755096,249.536072 
	C195.663971,250.853165 195.657135,253.116928 195.317795,255.329697 
	C194.851822,258.368286 193.252716,259.063538 190.005157,258.664398 
	C184.518463,257.990143 178.908676,258.126343 173.362015,258.295227 
	C172.270279,258.328461 170.798721,259.848206 170.240875,261.030762 
	C167.869415,266.057831 164.222336,267.138214 158.973694,266.181732 
	C152.359558,264.976379 145.495667,265.198212 138.767471,264.525208 
	C136.900116,264.338470 134.057266,263.625183 133.511246,262.357147 
	C131.556503,257.817627 128.033676,257.927887 124.506462,258.786713 
	C116.043983,260.847168 113.801262,259.981781 109.917725,252.406464 
	C109.446266,251.486801 108.532425,250.515884 107.598167,250.159164 
	C103.311165,248.522369 103.282387,248.597733 102.500641,242.893204 
	C98.669434,242.893204 94.627724,242.531372 90.675766,242.972885 
	C83.691925,243.753098 77.358475,236.415436 78.961349,229.677414 
	C79.575745,227.094650 78.018059,224.071732 78.078865,221.262985 
	C78.172432,216.941696 75.302994,217.441528 72.509796,216.729279 
	C70.742592,216.278671 69.435524,214.023544 67.614487,212.369232 
M68.387115,198.958893 
	C64.435242,203.986893 64.835381,206.379333 70.322052,208.646500 
	C76.747124,211.301453 81.626602,214.914047 81.104118,222.848297 
	C81.042358,223.786194 82.136368,224.772263 82.601784,225.778915 
	C83.438530,227.588715 84.837479,229.419083 84.872383,231.262238 
	C84.951431,235.436829 86.673843,236.084381 90.530632,235.826538 
	C95.148682,235.517822 98.953972,240.071304 104.062920,238.938202 
	C104.375885,238.868774 105.244843,241.449768 105.907265,242.771454 
	C106.554764,244.063354 107.566025,246.501846 107.908905,246.415543 
	C112.152954,245.347504 111.970779,248.818878 112.855606,251.031448 
	C115.170517,256.820190 119.419067,258.077209 124.493744,254.701736 
	C125.562393,253.990906 127.680260,254.000671 128.914902,254.560318 
	C132.326202,256.106598 135.496994,259.557709 138.816040,259.624756 
	C144.379135,259.737152 149.977737,257.778687 155.575592,256.770386 
	C156.605621,256.584869 157.934967,256.380524 158.731171,256.851990 
	C163.656662,259.768402 166.155701,259.398529 170.019226,255.062607 
	C170.689331,254.310562 171.730576,253.721634 172.709686,253.446960 
	C174.835907,252.850494 177.032730,252.505737 178.226776,252.259186 
	C183.503632,252.734421 188.018326,253.141006 192.533035,253.547592 
	C192.650543,253.058762 192.768066,252.569931 192.885590,252.081085 
	C192.017609,250.985687 191.149628,249.890274 190.215805,248.711777 
	C192.471222,245.866638 193.969086,242.695801 198.782608,243.395798 
	C201.882553,243.846619 205.330643,242.746857 208.456329,241.795471 
	C209.868118,241.365738 211.320648,239.813889 211.979599,238.407867 
	C213.783051,234.559708 215.631683,230.627136 216.605362,226.524567 
	C217.641434,222.159073 217.820816,217.569443 218.147614,213.061264 
	C218.643921,206.214752 216.053772,198.799164 222.202332,193.036057 
	C222.888229,192.393173 222.800049,190.882172 222.989288,189.760010 
	C223.454834,186.999374 223.615723,184.157471 224.377182,181.484436 
	C225.263992,178.371399 225.292252,176.354126 221.292297,175.923340 
	C218.423462,175.614365 210.227554,165.380936 210.172028,162.471054 
	C210.159927,161.836716 210.489899,161.196823 210.656479,160.557953 
	C212.399948,153.872269 209.466400,148.807098 205.238174,144.008453 
	C204.159119,142.783813 203.766830,140.749054 203.554703,139.025497 
	C203.358307,137.429688 203.956940,135.753860 203.977310,134.110458 
	C204.069336,126.682281 203.722900,126.514847 196.204437,126.622948 
	C195.181915,126.637650 193.466934,124.666641 193.216156,123.390350 
	C192.506256,119.777153 192.858734,115.923569 191.926651,112.393356 
	C190.632309,107.491158 187.083389,102.835312 192.666061,97.861259 
	C192.262177,97.579643 191.858307,97.298027 191.454437,97.016418 
	C188.217880,97.917740 184.981323,98.819061 182.442383,99.526115 
	C179.333221,91.657974 176.385712,84.198929 173.418167,76.689186 
	C171.118042,77.672913 169.811264,78.231796 167.171448,79.360802 
	C166.948105,74.605721 166.761414,70.630753 166.539886,65.914474 
	C164.088074,63.343643 160.443695,60.130039 157.612915,56.313061 
	C156.058548,54.217194 154.188217,51.137539 158.490509,48.840717 
	C161.242371,47.371609 160.548492,44.017277 157.300156,43.115810 
	C152.746094,41.851978 153.522644,39.347511 155.175339,36.368820 
	C155.672150,35.473412 156.214691,34.603371 156.736282,33.721710 
	C156.646835,33.179684 156.557373,32.637657 156.467911,32.095631 
	C151.671310,37.263100 147.950470,34.885586 143.642746,32.332973 
	C141.624588,31.137085 136.715485,31.284693 135.661255,32.708111 
	C133.208496,36.019806 132.333527,40.270988 129.500320,43.837929 
	C127.797928,45.981194 129.489380,50.990932 129.974228,54.670448 
	C131.817719,68.660439 131.256958,69.948967 120.929169,72.978584 
	C122.230820,76.629616 123.490074,80.572311 117.661308,81.566574 
	C117.281555,81.631355 117.184486,82.776535 116.757332,83.233513 
	C113.895950,86.294556 111.191887,89.553543 108.016594,92.254280 
	C105.442566,94.443619 102.281212,95.942436 99.312508,97.789742 
	C100.587730,99.270920 101.699570,100.562325 103.278038,102.395714 
	C100.842117,102.839790 99.151756,103.147949 96.945999,103.550072 
	C98.171722,109.631500 95.742104,113.620216 90.214806,115.783882 
	C82.950958,118.627327 82.255920,119.975494 83.216904,127.780113 
	C81.841980,130.026169 80.483879,132.351028 80.087570,134.829651 
	C79.261810,139.994171 78.348839,144.273987 72.885216,147.348328 
	C65.223923,151.659302 60.225777,162.442764 67.045715,168.955292 
	C66.333633,171.417633 65.120468,173.567642 65.228767,175.648880 
	C65.481773,180.511078 66.298134,185.351059 67.027855,190.178635 
	C67.437912,192.891479 68.129456,195.561768 68.387115,198.958893 
M173.855499,65.395920 
	C174.226089,66.531670 174.596680,67.667419 174.967255,68.803162 
	C175.619751,68.286919 176.272247,67.770676 176.924759,67.254433 
	C176.022446,66.433495 175.120148,65.612549 173.855499,65.395920 
z"/>
<path fill="#FDFEFD" opacity="1.000000" stroke="none" 
	d="
M68.540649,198.605072 
	C68.129456,195.561768 67.437912,192.891479 67.027855,190.178635 
	C66.298134,185.351059 65.481773,180.511078 65.228767,175.648880 
	C65.120468,173.567642 66.333633,171.417633 67.045715,168.955292 
	C60.225777,162.442764 65.223923,151.659302 72.885216,147.348328 
	C78.348839,144.273987 79.261810,139.994171 80.087570,134.829651 
	C80.483879,132.351028 81.841980,130.026169 83.216904,127.780113 
	C82.255920,119.975494 82.950958,118.627327 90.214806,115.783882 
	C95.742104,113.620216 98.171722,109.631500 96.945999,103.550072 
	C99.151756,103.147949 100.842117,102.839790 103.278038,102.395714 
	C101.699570,100.562325 100.587730,99.270920 99.312508,97.789742 
	C102.281212,95.942436 105.442566,94.443619 108.016594,92.254280 
	C111.191887,89.553543 113.895950,86.294556 116.757332,83.233513 
	C117.184486,82.776535 117.281555,81.631355 117.661308,81.566574 
	C123.490074,80.572311 122.230820,76.629616 120.929169,72.978584 
	C131.256958,69.948967 131.817719,68.660439 129.974228,54.670448 
	C129.489380,50.990932 127.797928,45.981194 129.500320,43.837929 
	C132.333527,40.270988 133.208496,36.019806 135.661255,32.708111 
	C136.715485,31.284693 141.624588,31.137085 143.642746,32.332973 
	C147.950470,34.885586 151.671310,37.263100 156.467911,32.095631 
	C156.557373,32.637657 156.646835,33.179684 156.736282,33.721710 
	C156.214691,34.603371 155.672150,35.473412 155.175339,36.368820 
	C153.522644,39.347511 152.746094,41.851978 157.300156,43.115810 
	C160.548492,44.017277 161.242371,47.371609 158.490509,48.840717 
	C154.188217,51.137539 156.058548,54.217194 157.612915,56.313061 
	C160.443695,60.130039 164.088074,63.343643 166.539886,65.914474 
	C166.761414,70.630753 166.948105,74.605721 167.171448,79.360802 
	C169.811264,78.231796 171.118042,77.672913 173.418167,76.689186 
	C176.385712,84.198929 179.333221,91.657974 182.442383,99.526115 
	C184.981323,98.819061 188.217880,97.917740 191.454437,97.016418 
	C191.858307,97.298027 192.262177,97.579643 192.666061,97.861259 
	C187.083389,102.835312 190.632309,107.491158 191.926651,112.393356 
	C192.858734,115.923569 192.506256,119.777153 193.216156,123.390350 
	C193.466934,124.666641 195.181915,126.637650 196.204437,126.622948 
	C203.722900,126.514847 204.069336,126.682281 203.977310,134.110458 
	C203.956940,135.753860 203.358307,137.429688 203.554703,139.025497 
	C203.766830,140.749054 204.159119,142.783813 205.238174,144.008453 
	C209.466400,148.807098 212.399948,153.872269 210.656479,160.557953 
	C210.489899,161.196823 210.159927,161.836716 210.172028,162.471054 
	C210.227554,165.380936 218.423462,175.614365 221.292297,175.923340 
	C225.292252,176.354126 225.263992,178.371399 224.377182,181.484436 
	C223.615723,184.157471 223.454834,186.999374 222.989288,189.760010 
	C222.800049,190.882172 222.888229,192.393173 222.202332,193.036057 
	C216.053772,198.799164 218.643921,206.214752 218.147614,213.061264 
	C217.820816,217.569443 217.641434,222.159073 216.605362,226.524567 
	C215.631683,230.627136 213.783051,234.559708 211.979599,238.407867 
	C211.320648,239.813889 209.868118,241.365738 208.456329,241.795471 
	C205.330643,242.746857 201.882553,243.846619 198.782608,243.395798 
	C193.969086,242.695801 192.471222,245.866638 190.215805,248.711777 
	C191.149628,249.890274 192.017609,250.985687 192.885590,252.081085 
	C192.768066,252.569931 192.650543,253.058762 192.533035,253.547592 
	C188.018326,253.141006 183.503632,252.734421 178.226776,252.259186 
	C177.032730,252.505737 174.835907,252.850494 172.709686,253.446960 
	C171.730576,253.721634 170.689331,254.310562 170.019226,255.062607 
	C166.155701,259.398529 163.656662,259.768402 158.731171,256.851990 
	C157.934967,256.380524 156.605621,256.584869 155.575592,256.770386 
	C149.977737,257.778687 144.379135,259.737152 138.816040,259.624756 
	C135.496994,259.557709 132.326202,256.106598 128.914902,254.560318 
	C127.680260,254.000671 125.562393,253.990906 124.493744,254.701736 
	C119.419067,258.077209 115.170517,256.820190 112.855606,251.031448 
	C111.970779,248.818878 112.152954,245.347504 107.908905,246.415543 
	C107.566025,246.501846 106.554764,244.063354 105.907265,242.771454 
	C105.244843,241.449768 104.375885,238.868774 104.062920,238.938202 
	C98.953972,240.071304 95.148682,235.517822 90.530632,235.826538 
	C86.673843,236.084381 84.951431,235.436829 84.872383,231.262238 
	C84.837479,229.419083 83.438530,227.588715 82.601784,225.778915 
	C82.136368,224.772263 81.042358,223.786194 81.104118,222.848297 
	C81.626602,214.914047 76.747124,211.301453 70.322052,208.646500 
	C64.835381,206.379333 64.435242,203.986893 68.540649,198.605072 
M76.047173,192.604996 
	C76.383781,193.072906 76.720390,193.540817 77.240738,194.283691 
	C77.240738,194.283691 77.219536,194.613693 77.064171,195.483536 
	C78.053574,197.988144 79.042969,200.492737 80.242104,203.226227 
	C80.242104,203.226227 80.271019,203.535324 80.106903,204.413208 
	C80.240044,207.326904 79.227989,210.956818 84.085495,211.007660 
	C84.085495,211.007660 84.131676,210.873672 84.025421,211.628326 
	C84.661545,215.232651 86.125175,218.146393 90.632172,219.213562 
	C91.075012,219.830521 91.517853,220.447479 91.963989,221.836624 
	C91.725067,224.763489 93.587524,225.163223 96.325363,225.171173 
	C96.325363,225.171173 96.803719,225.184708 96.877762,225.615723 
	C96.877762,225.615723 96.976860,226.041855 97.197968,226.528412 
	C97.515533,226.666031 97.833099,226.803665 98.568916,227.087570 
	C98.829727,227.252029 99.010658,227.479904 99.102135,228.521072 
	C100.803673,229.643555 102.505203,230.766022 104.782837,232.024521 
	C105.561859,232.609116 106.340889,233.193695 107.051132,234.562103 
	C109.405083,239.822403 114.334793,240.198700 118.986298,240.952713 
	C118.986298,240.952713 119.080727,240.891266 119.115150,241.624008 
	C121.147461,244.728958 124.025063,245.518723 128.086365,244.707077 
	C128.775879,245.043549 129.465378,245.380020 130.153854,246.504868 
	C132.794067,247.305054 135.408142,248.453751 138.093277,248.655273 
	C138.747650,248.704376 139.635437,245.643082 140.993195,244.414001 
	C142.299774,245.412384 143.606354,246.410767 145.107849,248.118652 
	C146.023422,248.724319 146.989059,249.916565 147.846680,249.843338 
	C155.062607,249.227219 162.422943,249.069199 169.414261,247.405380 
	C176.276199,245.772339 182.757248,242.538452 189.404953,240.005783 
	C195.750031,237.588394 202.748169,236.150726 206.373444,228.454926 
	C207.496109,227.037277 209.191986,225.782043 209.647217,224.175293 
	C212.343185,214.659668 215.180801,205.109802 212.945526,194.410767 
	C212.613251,193.946106 212.280960,193.481445 211.528610,192.531601 
	C211.418381,191.687637 211.308167,190.843658 211.639725,189.535965 
	C211.737823,188.690796 211.835922,187.845612 212.412979,186.651672 
	C211.869064,186.138031 211.325165,185.624405 210.424332,184.670685 
	C210.329529,184.117981 210.234741,183.565262 210.526779,182.783798 
	C210.756165,182.570343 210.895615,182.308884 211.420776,181.650360 
	C210.880981,181.123993 210.341202,180.597626 209.656448,179.724823 
	C209.656448,179.724823 209.662903,179.349335 209.895554,178.690598 
	C209.926666,178.461411 209.957764,178.232224 209.992203,177.177200 
	C208.497284,172.125900 207.242615,166.987915 205.457947,162.041138 
	C201.616074,151.392105 198.122345,140.549988 193.325256,130.331894 
	C188.453186,119.954041 182.380676,110.113472 176.439560,100.275742 
	C173.788010,95.885078 170.171661,92.077065 166.824936,87.704803 
	C166.824936,87.704803 166.784790,87.363373 166.913528,86.531105 
	C164.394562,81.247932 161.901138,75.951912 159.271942,70.724182 
	C159.155563,70.492783 157.800705,70.884262 157.013168,71.021942 
	C157.013168,71.021942 156.975739,71.025291 156.229507,71.071289 
	C155.153915,70.525635 153.265182,70.112625 153.150604,69.410202 
	C152.759613,67.013451 153.374481,64.435371 152.883148,62.076969 
	C152.372238,59.624653 151.022644,57.347057 150.025604,54.233292 
	C149.333862,51.829082 148.642120,49.424870 147.973450,46.307693 
	C147.305130,45.553753 146.636810,44.799809 145.452576,43.774708 
	C144.977798,43.174732 144.503021,42.574760 143.901611,41.293831 
	C142.541214,40.284271 141.180832,39.274715 139.820435,38.265156 
	C139.483170,38.428612 139.145889,38.592072 138.808624,38.755527 
	C139.538010,41.171947 140.267380,43.588364 141.167358,46.418190 
	C141.319717,46.685162 141.531998,46.890022 141.909378,47.531166 
	C141.928940,47.699821 141.948517,47.868477 141.926788,48.777714 
	C141.961533,49.517967 141.996277,50.258221 141.573761,51.328297 
	C142.028214,51.897240 142.482666,52.466183 142.949982,53.004238 
	C142.949982,53.004238 142.973663,53.027676 142.927307,53.948292 
	C142.926590,57.942436 142.925873,61.936581 142.199280,66.145073 
	C141.806763,68.102081 141.414230,70.059082 140.482697,72.421005 
	C139.304398,74.913216 138.126099,77.405426 136.748352,80.361473 
	C136.485611,80.564766 136.222870,80.768051 135.231628,80.979744 
	C134.474808,81.968414 133.717987,82.957085 132.730682,84.383690 
	C132.530991,84.661926 132.268356,84.854202 131.222107,84.969131 
	C130.460556,85.946808 129.699005,86.924484 128.731201,88.362495 
	C128.466827,88.563797 128.202438,88.765106 127.478874,89.127953 
	C127.188370,89.317024 127.016441,89.582809 126.933365,89.990822 
	C126.933365,89.990822 126.886200,89.936478 126.167229,89.947815 
	C120.869385,93.748085 113.858055,95.917618 112.956627,103.955971 
	C112.956627,103.955971 112.867180,103.921036 112.121132,103.942238 
	C110.537048,104.692131 108.475815,105.041008 107.450737,106.260719 
	C102.787941,111.808769 98.055847,117.363960 94.078018,123.397438 
	C91.744598,126.936729 90.779060,131.377853 89.155617,135.746292 
	C89.155617,135.746292 88.915222,135.980606 88.469711,136.223709 
	C88.345924,136.527710 88.222137,136.831696 88.039566,137.025940 
	C88.039566,137.025940 88.139389,137.100357 87.421967,137.129532 
	C86.440514,138.178574 85.066788,139.062546 84.544182,140.304642 
	C82.015694,146.314194 79.474167,152.341370 77.461029,158.532608 
	C76.716782,160.821472 77.406364,163.576569 77.399124,166.762878 
	C77.263214,167.169922 77.127312,167.576965 76.202286,168.176743 
	C75.802719,172.803345 75.185776,177.425354 75.087646,182.058350 
	C75.031586,184.705444 75.820503,187.370438 76.394379,190.252609 
	C76.394379,190.252609 76.318878,190.521667 76.089622,191.246109 
	C76.060822,191.496597 76.032028,191.747086 76.047173,192.604996 
z"/>
<path fill="#FDFEFD" opacity="1.000000" stroke="none" 
	d="
M174.036667,65.093765 
	C175.120148,65.612549 176.022446,66.433495 176.924759,67.254425 
	C176.272247,67.770676 175.619751,68.286919 174.967255,68.803162 
	C174.596680,67.667419 174.226089,66.531670 174.036667,65.093765 
z"/>
<path fill="#60C6C0" opacity="1.000000" stroke="none" 
	d="
M210.139954,183.012558 
	C210.234741,183.565262 210.329529,184.117981 210.587509,185.210770 
	C210.804016,186.175262 210.857346,186.599670 210.897751,187.399811 
	C210.989197,188.516937 211.093567,189.258316 211.197937,189.999695 
	C211.308167,190.843658 211.418381,191.687637 211.694427,193.106567 
	C211.880249,194.127884 211.900269,194.574249 211.886795,195.480804 
	C210.975143,203.616959 210.206253,211.307602 209.179474,218.963654 
	C208.521698,223.868378 205.987610,227.503494 200.648483,229.058716 
	C198.856689,229.465408 197.432938,229.850571 195.594376,230.234055 
	C186.635178,231.657700 178.168640,232.299393 170.268036,227.472382 
	C170.866760,226.432831 171.415039,225.673309 172.277527,224.803284 
	C173.679550,222.791138 174.767365,220.889481 176.040894,218.668335 
	C177.119080,215.516830 178.344467,212.742493 178.846893,209.842865 
	C181.130753,196.662201 178.995544,183.723175 176.334213,170.837677 
	C171.339447,146.654251 162.623978,123.664253 153.870178,100.683342 
	C153.242676,99.036018 152.478165,97.144226 152.726181,95.510117 
	C153.968918,87.322136 155.527893,79.182144 156.975739,71.025291 
	C156.975739,71.025291 157.013168,71.021942 157.301910,71.201920 
	C160.655350,76.709053 163.720062,82.036217 166.784790,87.363373 
	C166.784790,87.363373 166.824936,87.704803 166.940262,88.209473 
	C167.495941,89.605316 167.874588,90.533646 168.385590,91.382286 
	C184.925262,118.850204 200.408844,146.811905 209.042236,178.259247 
	C209.269623,178.794083 209.466263,179.071716 209.662903,179.349335 
	C209.662903,179.349335 209.656448,179.724823 209.708710,180.224274 
	C209.811127,181.157333 209.861282,181.590912 209.923523,182.281937 
	C210.003708,182.697113 210.071823,182.854843 210.139954,183.012558 
z"/>
<path fill="#42A7D1" opacity="1.000000" stroke="none" 
	d="
M144.912918,247.409164 
	C143.606354,246.410767 142.299774,245.412384 140.688232,244.211060 
	C140.383255,244.008102 140.349426,243.991928 140.286255,243.634567 
	C137.218506,238.721054 134.213913,234.164902 131.188354,229.442993 
	C131.167389,229.277252 130.985870,228.996719 130.965851,228.674469 
	C130.294250,227.313339 129.642670,226.274460 128.809113,225.124619 
	C128.627106,225.013657 128.205719,224.948868 128.148712,224.649185 
	C128.095444,223.943283 128.099213,223.537064 128.337036,223.099274 
	C128.571091,223.067703 129.027863,222.944046 129.256592,222.996597 
	C129.485321,223.049149 129.953339,223.013336 129.966812,223.027008 
	C129.980286,223.040695 130.018677,223.039551 130.171631,223.260361 
	C130.887527,223.872543 131.450500,224.263916 132.298309,224.826752 
	C133.005661,225.131165 133.428177,225.264099 134.074158,225.650238 
	C141.986389,228.258759 149.540161,231.811569 157.394623,232.697037 
	C170.122345,234.131897 183.047394,233.816452 195.713867,234.528320 
	C185.193298,238.556290 175.012619,242.892960 164.440002,245.808182 
	C158.254135,247.513840 151.442856,246.951324 144.912918,247.409164 
z"/>
<path fill="#DBF7F9" opacity="1.000000" stroke="none" 
	d="
M156.602631,71.048294 
	C155.527893,79.182144 153.968918,87.322136 152.726181,95.510117 
	C152.478165,97.144226 153.242676,99.036018 153.870178,100.683342 
	C162.623978,123.664253 171.339447,146.654251 176.334213,170.837677 
	C178.995544,183.723175 181.130753,196.662201 178.846893,209.842865 
	C178.344467,212.742493 177.119080,215.516830 175.813965,218.664505 
	C175.401306,218.980148 174.946350,218.960449 174.968735,218.554749 
	C175.723618,210.162643 177.369232,202.129623 176.964432,194.201294 
	C176.421494,183.567352 175.001068,172.853333 172.640884,162.473022 
	C170.389191,152.569824 166.567001,143.009384 163.211609,133.376160 
	C160.721176,126.226219 157.990402,119.153450 155.153717,112.132347 
	C151.817566,103.874962 149.204544,95.622505 152.606583,86.706436 
	C152.853394,86.059586 152.638947,85.236725 152.638947,84.495697 
	C150.737183,85.493126 149.983871,86.963005 149.049866,88.307343 
	C148.420135,89.213730 147.535400,89.942955 146.771912,90.373978 
	C147.442764,88.134514 148.128510,86.280045 148.766403,84.409256 
	C152.089951,74.662155 153.322876,64.879814 149.417343,55.012306 
	C149.624817,55.005745 150.039780,54.993065 150.039795,54.993065 
	C151.022644,57.347057 152.372238,59.624653 152.883148,62.076969 
	C153.374481,64.435371 152.759613,67.013451 153.150604,69.410202 
	C153.265182,70.112625 155.153915,70.525635 156.602631,71.048294 
z"/>
<path fill="#3877A0" opacity="1.000000" stroke="none" 
	d="
M135.960144,80.971344 
	C136.222870,80.768051 136.485611,80.564766 137.130630,80.044823 
	C138.238739,79.072701 138.964554,78.417236 139.778381,78.136124 
	C139.037872,80.042717 138.493149,81.844086 137.335800,83.064476 
	C128.334244,92.556335 119.186356,101.909157 110.139374,111.358269 
	C100.624680,121.295906 92.897400,132.636642 87.090431,144.962799 
	C80.656380,158.620010 76.752701,173.016586 78.855011,188.613434 
	C80.355347,199.744263 85.515923,208.684631 92.454491,217.045532 
	C94.371040,219.354965 95.605209,222.230698 97.065720,224.931580 
	C96.978958,225.016556 96.803719,225.184708 96.803719,225.184708 
	C96.803719,225.184708 96.325363,225.171173 96.012955,224.811981 
	C94.453926,223.323334 93.207306,222.193893 91.960693,221.064453 
	C91.517853,220.447479 91.075012,219.830521 90.300064,218.745575 
	C88.022530,215.809616 86.077103,213.341644 84.131676,210.873672 
	C84.131676,210.873672 84.085495,211.007660 84.078255,210.596146 
	C82.804352,207.968201 81.537689,205.751755 80.271019,203.535324 
	C80.271019,203.535324 80.242104,203.226227 80.126923,202.739395 
	C79.081009,199.706268 78.150276,197.159988 77.219536,194.613693 
	C77.219536,194.613693 77.240738,194.283691 77.186867,193.808899 
	C77.041550,192.892700 76.950104,192.451263 76.874481,191.729980 
	C76.699837,191.140640 76.509354,190.831146 76.318878,190.521667 
	C76.318878,190.521667 76.394379,190.252609 76.370331,189.670624 
	C76.561333,182.053757 76.776375,175.018875 76.991409,167.984009 
	C77.127312,167.576965 77.263214,167.169922 77.601685,166.132050 
	C81.249290,156.034271 84.694344,146.567307 88.139389,137.100357 
	C88.139389,137.100357 88.039566,137.025940 88.307587,136.974091 
	C88.688812,136.608353 88.802017,136.294479 88.915222,135.980606 
	C88.915222,135.980606 89.155617,135.746292 89.453201,135.359650 
	C97.456261,124.622345 105.161728,114.271698 112.867188,103.921036 
	C112.867180,103.921036 112.956627,103.955971 113.257614,103.816872 
	C118.001137,99.097343 122.443672,94.516907 126.886200,89.936478 
	C126.886200,89.936478 126.933365,89.990822 127.204315,89.916496 
	C127.629532,89.550247 127.783798,89.258324 127.938065,88.966400 
	C128.202438,88.765106 128.466827,88.563797 129.136414,88.047470 
	C130.342010,86.808472 131.142395,85.884491 131.942795,84.960510 
	C132.268356,84.854202 132.530991,84.661926 133.147095,84.075996 
	C134.362381,82.835983 135.161270,81.903671 135.960144,80.971344 
z"/>
<path fill="#407BA2" opacity="1.000000" stroke="none" 
	d="
M130.154892,245.716507 
	C129.465378,245.380020 128.775879,245.043549 127.571121,244.450623 
	C125.627197,243.339905 124.198509,242.485657 122.918228,241.327133 
	C125.595657,241.548462 128.124680,242.074066 132.124069,242.905258 
	C129.414871,238.851501 127.313919,236.147797 125.680229,233.186325 
	C119.022408,221.117340 113.404671,208.528809 113.064545,194.548813 
	C112.736145,181.050690 112.337769,167.354568 114.232292,154.067978 
	C115.639954,144.195816 120.445709,134.754501 124.137253,125.276817 
	C127.798126,115.877892 132.316269,106.898338 139.998260,100.242973 
	C140.024124,100.732368 140.033188,100.928200 140.000031,101.404861 
	C139.888336,102.054077 139.818878,102.422470 139.741486,102.839828 
	C139.733521,102.888794 139.783371,102.803452 139.485077,102.953568 
	C137.740829,105.382469 136.294891,107.661247 134.618896,110.118874 
	C134.128036,110.815353 133.867203,111.332985 133.335327,112.041107 
	C130.956543,116.414543 128.848801,120.597481 126.748482,124.792130 
	C126.755913,124.803848 126.779953,124.817696 126.501816,125.028854 
	C123.863396,131.504272 121.503113,137.768555 119.020584,144.330429 
	C118.835793,145.050903 118.773262,145.473755 118.482910,146.182144 
	C113.795631,161.769363 112.394539,177.303864 114.697510,193.439362 
	C114.800522,194.166275 114.910095,194.574646 114.971474,195.401886 
	C117.561310,204.565277 120.199348,213.309784 122.887695,222.375519 
	C123.337700,223.457687 123.737396,224.218658 124.184059,225.317810 
	C125.639870,228.167145 127.048714,230.678284 128.593063,233.519699 
	C131.444168,237.585098 134.159760,241.320221 136.874512,245.433014 
	C134.634064,245.779297 132.394485,245.747894 130.154892,245.716507 
z"/>
<path fill="#DBF7F9" opacity="1.000000" stroke="none" 
	d="
M209.011475,178.002029 
	C200.408844,146.811905 184.925262,118.850204 168.385590,91.382286 
	C167.874588,90.533646 167.495941,89.605316 167.024384,88.359375 
	C170.171661,92.077065 173.788010,95.885078 176.439560,100.275742 
	C182.380676,110.113472 188.453186,119.954041 193.325256,130.331894 
	C198.122345,140.549988 201.616074,151.392105 205.457947,162.041138 
	C207.242615,166.987915 208.497284,172.125900 209.746246,177.590576 
	C209.500305,178.003952 209.011475,178.002029 209.011475,178.002029 
z"/>
<path fill="#3877A0" opacity="1.000000" stroke="none" 
	d="
M140.042252,101.124023 
	C140.033188,100.928200 140.024124,100.732368 140.010254,99.866158 
	C140.649200,97.341408 140.936249,95.247528 141.994553,93.671547 
	C148.897522,83.391914 149.937607,71.953201 148.788162,60.109650 
	C148.623566,58.413502 147.288345,56.830967 145.987076,54.149391 
	C145.987076,58.867996 146.489975,62.070694 145.859772,65.032280 
	C145.072403,68.732445 146.093353,73.426559 141.447754,75.192917 
	C141.692871,73.894905 141.911407,72.958336 142.345123,71.748322 
	C142.799698,70.129608 143.039078,68.784355 143.506958,67.063660 
	C143.481552,62.134693 143.227615,57.581184 142.973663,53.027676 
	C142.973663,53.027676 142.949982,53.004238 142.961639,52.682251 
	C142.924728,51.913582 142.876160,51.466904 142.881226,50.689705 
	C142.612625,49.585171 142.290359,48.811153 141.968109,48.037132 
	C141.948517,47.868477 141.928940,47.699821 141.921936,46.935829 
	C141.847214,45.882824 141.759918,45.425152 141.765991,44.842239 
	C141.859375,44.716995 141.822662,44.406708 142.129181,44.475029 
	C143.463913,45.194637 144.492126,45.845928 145.674561,46.819931 
	C146.955811,49.768055 148.082840,52.393463 149.209869,55.018867 
	C153.322876,64.879814 152.089951,74.662155 148.766403,84.409256 
	C148.128510,86.280045 147.442764,88.134514 146.787750,90.385742 
	C146.796387,90.774979 146.793594,90.810020 146.509079,90.995255 
	C144.163788,94.494995 142.103012,97.809509 140.042252,101.124023 
z"/>
<path fill="#CFF3FA" opacity="1.000000" stroke="none" 
	d="
M145.010376,247.763916 
	C151.442856,246.951324 158.254135,247.513840 164.440002,245.808182 
	C175.012619,242.892960 185.193298,238.556290 195.746552,234.125763 
	C195.972748,232.368515 195.990967,231.302124 196.009186,230.235733 
	C197.432938,229.850571 198.856689,229.465408 200.857544,229.301422 
	C202.935410,229.346512 204.436172,229.170425 205.936920,228.994324 
	C202.748169,236.150726 195.750031,237.588394 189.404953,240.005783 
	C182.757248,242.538452 176.276199,245.772339 169.414261,247.405380 
	C162.422943,249.069199 155.062607,249.227219 147.846680,249.843338 
	C146.989059,249.916565 146.023422,248.724319 145.010376,247.763916 
z"/>
<path fill="#D6F1F9" opacity="1.000000" stroke="none" 
	d="
M112.494156,103.931641 
	C105.161728,114.271698 97.456261,124.622345 89.474510,135.193146 
	C90.779060,131.377853 91.744598,126.936729 94.078018,123.397438 
	C98.055847,117.363960 102.787941,111.808769 107.450737,106.260719 
	C108.475815,105.041008 110.537048,104.692131 112.494156,103.931641 
z"/>
<path fill="#CCF4F7" opacity="1.000000" stroke="none" 
	d="
M206.155182,228.724640 
	C204.436172,229.170425 202.935410,229.346512 201.225586,229.279907 
	C205.987610,227.503494 208.521698,223.868378 209.179474,218.963654 
	C210.206253,211.307602 210.975143,203.616959 212.145737,195.477661 
	C212.610474,195.015930 212.782776,195.017517 212.955093,195.019119 
	C215.180801,205.109802 212.343185,214.659668 209.647217,224.175293 
	C209.191986,225.782043 207.496109,227.037277 206.155182,228.724640 
z"/>
<path fill="#3877A0" opacity="1.000000" stroke="none" 
	d="
M107.119911,233.778290 
	C106.340889,233.193695 105.561859,232.609116 104.348183,231.655182 
	C102.312927,230.114304 100.712318,228.942749 99.111710,227.771210 
	C99.010658,227.479904 98.829727,227.252029 98.253357,226.765381 
	C97.617493,226.309418 97.297173,226.175644 96.976860,226.041855 
	C96.976860,226.041855 96.877762,225.615723 96.840744,225.400208 
	C96.803719,225.184708 96.978958,225.016556 97.431061,224.982056 
	C99.223434,225.440628 100.690605,225.727707 101.882278,226.461945 
	C107.388657,229.854614 112.887245,233.270493 118.232025,236.908142 
	C119.760117,237.948181 120.762863,239.760101 121.638245,241.186523 
	C120.540237,241.067078 119.810486,240.979172 119.080727,240.891266 
	C119.080727,240.891266 118.986298,240.952713 118.869659,240.635284 
	C114.875320,238.137985 110.997612,235.958145 107.119911,233.778290 
z"/>
<path fill="#D6F1F9" opacity="1.000000" stroke="none" 
	d="
M87.780678,137.114944 
	C84.694344,146.567307 81.249290,156.034271 77.623131,165.810120 
	C77.406364,163.576569 76.716782,160.821472 77.461029,158.532608 
	C79.474167,152.341370 82.015694,146.314194 84.544182,140.304642 
	C85.066788,139.062546 86.440514,138.178574 87.780678,137.114944 
z"/>
<path fill="#DBF7F9" opacity="1.000000" stroke="none" 
	d="
M166.849152,86.947235 
	C163.720062,82.036217 160.655350,76.709053 157.306686,71.183746 
	C157.800705,70.884262 159.155563,70.492783 159.271942,70.724182 
	C161.901138,75.951912 164.394562,81.247932 166.849152,86.947235 
z"/>
<path fill="#D6F1F9" opacity="1.000000" stroke="none" 
	d="
M126.526718,89.942146 
	C122.443672,94.516907 118.001137,99.097343 113.239326,103.772476 
	C113.858055,95.917618 120.869385,93.748085 126.526718,89.942146 
z"/>
<path fill="#CDEBF6" opacity="1.000000" stroke="none" 
	d="
M130.154373,246.110687 
	C132.394485,245.747894 134.634064,245.779297 137.211395,245.293549 
	C138.482559,244.514908 139.415985,244.253403 140.349426,243.991913 
	C140.349426,243.991928 140.383255,244.008102 140.399567,244.010010 
	C139.635437,245.643082 138.747650,248.704376 138.093277,248.655273 
	C135.408142,248.453751 132.794067,247.305054 130.154373,246.110687 
z"/>
<path fill="#CDEBF6" opacity="1.000000" stroke="none" 
	d="
M107.085526,234.170197 
	C110.997612,235.958145 114.875320,238.137985 118.920395,240.613968 
	C114.334793,240.198700 109.405083,239.822403 107.085526,234.170197 
z"/>
<path fill="#D6F1F9" opacity="1.000000" stroke="none" 
	d="
M76.596848,168.080383 
	C76.776375,175.018875 76.561333,182.053757 76.287628,189.557999 
	C75.820503,187.370438 75.031586,184.705444 75.087646,182.058350 
	C75.185776,177.425354 75.802719,172.803345 76.596848,168.080383 
z"/>
<path fill="#DBF7F9" opacity="1.000000" stroke="none" 
	d="
M140.996765,46.004780 
	C140.267380,43.588364 139.538010,41.171947 138.808624,38.755527 
	C139.145889,38.592072 139.483170,38.428612 139.820435,38.265156 
	C141.180832,39.274715 142.541214,40.284271 143.647186,41.672153 
	C142.869385,42.835888 142.346024,43.621300 141.822662,44.406708 
	C141.822662,44.406708 141.859375,44.716995 141.611603,44.984276 
	C141.187943,45.476540 141.065598,45.727615 140.996765,46.004780 
z"/>
<path fill="#CDEBF6" opacity="1.000000" stroke="none" 
	d="
M119.097939,241.257629 
	C119.810486,240.979172 120.540237,241.067078 121.806702,241.330353 
	C122.343399,241.505737 122.769829,241.631393 122.769821,241.631409 
	C124.198509,242.485657 125.627197,243.339905 127.275856,244.438995 
	C124.025063,245.518723 121.147461,244.728958 119.097939,241.257629 
z"/>
<path fill="#CDEBF6" opacity="1.000000" stroke="none" 
	d="
M84.078552,211.251007 
	C86.077103,213.341644 88.022530,215.809616 90.048035,218.609314 
	C86.125175,218.146393 84.661545,215.232651 84.078552,211.251007 
z"/>
<path fill="#C9EAF5" opacity="1.000000" stroke="none" 
	d="
M142.129929,72.021774 
	C141.911407,72.958336 141.692871,73.894905 141.456909,75.204422 
	C141.439453,75.577370 141.413147,75.590401 141.130035,75.659088 
	C140.479919,76.412415 140.112885,77.097061 139.729294,77.788712 
	C139.712723,77.795708 139.690384,77.761765 139.690384,77.761765 
	C138.964554,78.417236 138.238739,79.072701 137.230347,79.812897 
	C138.126099,77.405426 139.304398,74.913216 141.029144,72.217209 
	C141.760361,72.016190 141.945145,72.018982 142.129929,72.021774 
z"/>
<path fill="#CDEBF6" opacity="1.000000" stroke="none" 
	d="
M80.188965,203.974274 
	C81.537689,205.751755 82.804352,207.968201 84.109970,210.530396 
	C79.227989,210.956818 80.240044,207.326904 80.188965,203.974274 
z"/>
<path fill="#C9EAF5" opacity="1.000000" stroke="none" 
	d="
M149.417343,55.012306 
	C148.082840,52.393463 146.955811,49.768055 145.809570,46.686886 
	C145.790359,46.231125 146.048508,45.962860 146.291870,46.086037 
	C147.006958,46.479694 147.478683,46.750179 147.950378,47.020660 
	C148.642120,49.424870 149.333862,51.829082 150.032684,54.613178 
	C150.039780,54.993065 149.624817,55.005745 149.417343,55.012306 
z"/>
<path fill="#C9EAF5" opacity="1.000000" stroke="none" 
	d="
M142.950485,53.487984 
	C143.227615,57.581184 143.481552,62.134693 143.403473,66.689453 
	C143.022705,66.437378 142.973938,66.184052 142.925171,65.930725 
	C142.925873,61.936581 142.926590,57.942436 142.950485,53.487984 
z"/>
<path fill="#CDEBF6" opacity="1.000000" stroke="none" 
	d="
M77.141853,195.048615 
	C78.150276,197.159988 79.081009,199.706268 80.022064,202.624954 
	C79.042969,200.492737 78.053574,197.988144 77.141853,195.048615 
z"/>
<path fill="#CDEBF6" opacity="1.000000" stroke="none" 
	d="
M99.106926,228.146133 
	C100.712318,228.942749 102.312927,230.114304 104.060135,231.587173 
	C102.505203,230.766022 100.803673,229.643555 99.106926,228.146133 
z"/>
<path fill="#DBF7F9" opacity="1.000000" stroke="none" 
	d="
M142.562225,66.037903 
	C142.973938,66.184052 143.022705,66.437378 143.174957,67.064903 
	C143.039078,68.784355 142.799698,70.129608 142.345123,71.748322 
	C141.945145,72.018982 141.760361,72.016190 141.298645,72.014748 
	C141.414230,70.059082 141.806763,68.102081 142.562225,66.037903 
z"/>
<path fill="#C9EAF5" opacity="1.000000" stroke="none" 
	d="
M142.129181,44.475029 
	C142.346024,43.621300 142.869385,42.835888 143.710495,42.012630 
	C144.503021,42.574760 144.977798,43.174732 145.720795,44.229538 
	C146.008850,45.110531 146.028671,45.536694 146.048508,45.962860 
	C146.048508,45.962860 145.790359,46.231125 145.655334,46.364170 
	C144.492126,45.845928 143.463913,45.194637 142.129181,44.475029 
z"/>
<path fill="#CDEBF6" opacity="1.000000" stroke="none" 
	d="
M91.962341,221.450531 
	C93.207306,222.193893 94.453926,223.323334 95.778702,224.763214 
	C93.587524,225.163223 91.725067,224.763489 91.962341,221.450531 
z"/>
<path fill="#C9EAF5" opacity="1.000000" stroke="none" 
	d="
M131.582458,84.964821 
	C131.142395,85.884491 130.342010,86.808472 129.239532,87.817307 
	C129.699005,86.924484 130.460556,85.946808 131.582458,84.964821 
z"/>
<path fill="#C9EAF5" opacity="1.000000" stroke="none" 
	d="
M135.595886,80.975548 
	C135.161270,81.903671 134.362381,82.835983 133.262329,83.857025 
	C133.717987,82.957085 134.474808,81.968414 135.595886,80.975548 
z"/>
<path fill="#DBF7F9" opacity="1.000000" stroke="none" 
	d="
M146.291870,46.086037 
	C146.028671,45.536694 146.008850,45.110531 145.978760,44.365116 
	C146.636810,44.799809 147.305130,45.553753 147.961914,46.664177 
	C147.478683,46.750179 147.006958,46.479694 146.291870,46.086037 
z"/>
<path fill="#DBF7F9" opacity="1.000000" stroke="none" 
	d="
M210.910675,187.024078 
	C210.857346,186.599670 210.804016,186.175262 210.765961,185.430817 
	C211.325165,185.624405 211.869064,186.138031 211.918060,186.831802 
	C211.252304,187.015976 211.081497,187.020035 210.910675,187.024078 
z"/>
<path fill="#DBF7F9" opacity="1.000000" stroke="none" 
	d="
M209.911453,182.024506 
	C209.861282,181.590912 209.811127,181.157333 209.781189,180.397491 
	C210.341202,180.597626 210.880981,181.123993 210.924835,181.830566 
	C210.256424,182.015350 210.083939,182.019928 209.911453,182.024506 
z"/>
<path fill="#DBF7F9" opacity="1.000000" stroke="none" 
	d="
M142.827591,51.020222 
	C142.876160,51.466904 142.924728,51.913582 142.955200,52.697693 
	C142.482666,52.466183 142.028214,51.897240 142.001434,51.166027 
	C142.429123,51.003757 142.827591,51.020222 142.827591,51.020222 
z"/>
<path fill="#CCF4F7" opacity="1.000000" stroke="none" 
	d="
M210.897751,187.399811 
	C211.081497,187.020035 211.252304,187.015976 211.678589,187.006195 
	C211.835922,187.845612 211.737823,188.690796 211.418823,189.767822 
	C211.093567,189.258316 210.989197,188.516937 210.897751,187.399811 
z"/>
<path fill="#C9EAF5" opacity="1.000000" stroke="none" 
	d="
M142.881226,50.689705 
	C142.827591,51.020222 142.429123,51.003757 142.230072,51.001114 
	C141.996277,50.258221 141.961533,49.517967 141.947449,48.407425 
	C142.290359,48.811153 142.612625,49.585171 142.881226,50.689705 
z"/>
<path fill="#D6F1F9" opacity="1.000000" stroke="none" 
	d="
M76.858650,192.009842 
	C76.950104,192.451263 77.041550,192.892700 77.095001,193.671417 
	C76.720390,193.540817 76.383781,193.072906 76.239044,192.303375 
	C76.430923,192.001770 76.858650,192.009842 76.858650,192.009842 
z"/>
<path fill="#DBF7F9" opacity="1.000000" stroke="none" 
	d="
M212.950317,194.714935 
	C212.782776,195.017517 212.610474,195.015930 212.179230,195.017471 
	C211.900269,194.574249 211.880249,194.127884 211.904449,193.349152 
	C212.280960,193.481445 212.613251,193.946106 212.950317,194.714935 
z"/>
<path fill="#C9EAF5" opacity="1.000000" stroke="none" 
	d="
M141.082062,46.211487 
	C141.065598,45.727615 141.187943,45.476540 141.518219,45.109520 
	C141.759918,45.425152 141.847214,45.882824 141.869370,46.686638 
	C141.531998,46.890022 141.319717,46.685162 141.082062,46.211487 
z"/>
<path fill="#CDEBF6" opacity="1.000000" stroke="none" 
	d="
M76.874481,191.729980 
	C76.858650,192.009842 76.430923,192.001770 76.217072,191.999664 
	C76.032028,191.747086 76.060822,191.496597 76.204254,190.883881 
	C76.509354,190.831146 76.699837,191.140640 76.874481,191.729980 
z"/>
<path fill="#CDEBF6" opacity="1.000000" stroke="none" 
	d="
M97.087418,226.285126 
	C97.297173,226.175644 97.617493,226.309418 98.044235,226.692261 
	C97.833099,226.803665 97.515533,226.666031 97.087418,226.285126 
z"/>
<path fill="#CCF4F7" opacity="1.000000" stroke="none" 
	d="
M209.923523,182.281937 
	C210.083939,182.019928 210.256424,182.015350 210.687012,182.005096 
	C210.895615,182.308884 210.756165,182.570343 210.333374,182.898178 
	C210.071823,182.854843 210.003708,182.697113 209.923523,182.281937 
z"/>
<path fill="#CCF4F7" opacity="1.000000" stroke="none" 
	d="
M209.042236,178.259247 
	C209.011475,178.002029 209.500305,178.003952 209.744598,178.003510 
	C209.957764,178.232224 209.926666,178.461411 209.779236,179.019958 
	C209.466263,179.071716 209.269623,178.794083 209.042236,178.259247 
z"/>
<path fill="#C9EAF5" opacity="1.000000" stroke="none" 
	d="
M127.708466,89.047180 
	C127.783798,89.258324 127.629532,89.550247 127.219185,89.883736 
	C127.016441,89.582809 127.188370,89.317024 127.708466,89.047180 
z"/>
<path fill="#D6F1F9" opacity="1.000000" stroke="none" 
	d="
M88.692467,136.102158 
	C88.802017,136.294479 88.688812,136.608353 88.336975,137.028961 
	C88.222137,136.831696 88.345924,136.527710 88.692467,136.102158 
z"/>
<path fill="#FDFEFE" opacity="1.000000" stroke="none" 
	d="
M124.137093,224.979614 
	C123.737396,224.218658 123.337700,223.457687 123.227478,222.319305 
	C123.602661,220.543915 124.055161,219.045792 123.705894,217.766586 
	C122.620621,213.791779 121.390434,209.838852 119.914169,205.993500 
	C118.476593,202.248886 116.666313,198.647354 115.019676,194.983002 
	C114.910095,194.574646 114.800522,194.166275 115.038727,193.191498 
	C115.257736,189.234787 114.706276,185.797363 115.078339,182.462967 
	C116.260223,171.870911 117.831207,161.322784 119.130875,150.742813 
	C119.324287,149.168381 118.866989,147.514008 118.710732,145.896622 
	C118.773262,145.473755 118.835793,145.050903 119.360146,144.257401 
	C122.966423,137.831482 126.986870,132.095840 126.779953,124.817696 
	C126.779953,124.817696 126.755913,124.803848 127.112869,124.823387 
	C129.822708,121.160934 132.216125,117.503227 134.460342,113.756142 
	C134.665176,113.414139 133.913757,112.499397 133.606384,111.850616 
	C133.867203,111.332985 134.128036,110.815353 134.982880,110.108025 
	C136.979065,107.546707 138.381226,105.175079 139.783371,102.803452 
	C139.783371,102.803452 139.733521,102.888794 140.113098,102.881111 
	C144.324875,99.756897 147.078888,96.077202 146.793594,90.810020 
	C146.793594,90.810020 146.796387,90.774979 146.780563,90.763206 
	C147.535400,89.942955 148.420135,89.213730 149.049866,88.307343 
	C149.983871,86.963005 150.737183,85.493126 152.638947,84.495697 
	C152.638947,85.236725 152.853394,86.059586 152.606583,86.706436 
	C149.204544,95.622505 151.817566,103.874962 155.153717,112.132347 
	C157.990402,119.153450 160.721176,126.226219 163.211609,133.376160 
	C166.567001,143.009384 170.389191,152.569824 172.640884,162.473022 
	C175.001068,172.853333 176.421494,183.567352 176.964432,194.201294 
	C177.369232,202.129623 175.723618,210.162643 174.666443,218.730804 
	C173.548935,221.179642 172.756134,223.046722 171.963333,224.913788 
	C171.415039,225.673309 170.866760,226.432831 170.221954,227.858902 
	C170.337265,229.845871 170.549103,231.166290 170.802307,232.744583 
	C158.092651,231.010544 145.807175,230.445862 134.899292,223.699707 
	C130.302521,219.204651 129.084991,219.166260 128.102966,223.130844 
	C128.099213,223.537064 128.095444,223.943283 127.740799,224.666931 
	C126.305634,224.982788 125.221359,224.981201 124.137093,224.979614 
z"/>
<path fill="#CCF4F7" opacity="1.000000" stroke="none" 
	d="
M134.932678,224.055359 
	C145.807175,230.445862 158.092651,231.010544 170.802307,232.744583 
	C170.549103,231.166290 170.337265,229.845871 170.171524,228.138931 
	C178.168640,232.299393 186.635178,231.657700 195.594376,230.234055 
	C195.990967,231.302124 195.972748,232.368515 195.921829,233.837448 
	C183.047394,233.816452 170.122345,234.131897 157.394623,232.697037 
	C149.540161,231.811569 141.986389,228.258759 134.184372,225.371750 
	C134.358307,224.578476 134.645493,224.316925 134.932678,224.055359 
z"/>
<path fill="#CCF4F7" opacity="1.000000" stroke="none" 
	d="
M172.277527,224.803284 
	C172.756134,223.046722 173.548935,221.179642 174.644043,219.136505 
	C174.946350,218.960449 175.401306,218.980148 175.628250,218.983978 
	C174.767365,220.889481 173.679550,222.791138 172.277527,224.803284 
z"/>
<path fill="#CFF3FA" opacity="1.000000" stroke="none" 
	d="
M140.286255,243.634552 
	C139.415985,244.253403 138.482559,244.514908 137.212250,244.915878 
	C134.159760,241.320221 131.444168,237.585098 129.014587,233.436127 
	C129.936844,231.884445 130.573090,230.746597 131.209335,229.608749 
	C134.213913,234.164902 137.218506,238.721054 140.286255,243.634552 
z"/>
<path fill="#DBF7F9" opacity="1.000000" stroke="none" 
	d="
M131.188354,229.442993 
	C130.573090,230.746597 129.936844,231.884445 128.879074,233.105865 
	C127.048714,230.678284 125.639870,228.167145 124.184059,225.317810 
	C125.221359,224.981201 126.305634,224.982788 127.797806,224.966614 
	C128.205719,224.948868 128.627106,225.013657 128.809845,225.478363 
	C129.657013,226.960953 130.321442,227.978836 130.985870,228.996719 
	C130.985870,228.996719 131.167389,229.277252 131.188354,229.442993 
z"/>
<path fill="#DBF7F9" opacity="1.000000" stroke="none" 
	d="
M134.899292,223.699707 
	C134.645493,224.316925 134.358307,224.578476 133.960907,225.118530 
	C133.428177,225.264099 133.005661,225.131165 132.237930,224.544952 
	C131.268036,223.740967 130.643356,223.390259 130.018677,223.039551 
	C130.018677,223.039551 129.980286,223.040695 129.900391,222.859100 
	C129.556290,222.766357 129.292084,222.855209 129.027863,222.944061 
	C129.027863,222.944046 128.571091,223.067703 128.337036,223.099274 
	C129.084991,219.166260 130.302521,219.204651 134.899292,223.699707 
z"/>
<path fill="#CFF3FA" opacity="1.000000" stroke="none" 
	d="
M130.965851,228.674469 
	C130.321442,227.978836 129.657013,226.960953 128.991852,225.589325 
	C129.642670,226.274460 130.294250,227.313339 130.965851,228.674469 
z"/>
<path fill="#CCF4F7" opacity="1.000000" stroke="none" 
	d="
M130.171631,223.260361 
	C130.643356,223.390259 131.268036,223.740967 131.953094,224.373474 
	C131.450500,224.263916 130.887527,223.872543 130.171631,223.260361 
z"/>
<path fill="#CCF4F7" opacity="1.000000" stroke="none" 
	d="
M129.256592,222.996613 
	C129.292084,222.855209 129.556290,222.766357 129.886917,222.845428 
	C129.953339,223.013336 129.485321,223.049149 129.256592,222.996613 
z"/>
<path fill="#1B73B3" opacity="1.000000" stroke="none" 
	d="
M122.918228,241.327118 
	C122.769829,241.631393 122.343399,241.505737 122.174950,241.361908 
	C120.762863,239.760101 119.760117,237.948181 118.232025,236.908142 
	C112.887245,233.270493 107.388657,229.854614 101.882278,226.461945 
	C100.690605,225.727707 99.223434,225.440628 97.517822,224.897079 
	C95.605209,222.230698 94.371040,219.354965 92.454491,217.045532 
	C85.515923,208.684631 80.355347,199.744263 78.855011,188.613434 
	C76.752701,173.016586 80.656380,158.620010 87.090431,144.962799 
	C92.897400,132.636642 100.624680,121.295906 110.139374,111.358269 
	C119.186356,101.909157 128.334244,92.556335 137.335800,83.064476 
	C138.493149,81.844086 139.037872,80.042717 139.778381,78.136124 
	C139.690384,77.761765 139.712723,77.795708 140.104919,77.816185 
	C140.802460,77.087906 141.107803,76.339157 141.413147,75.590401 
	C141.413147,75.590401 141.439453,75.577370 141.430298,75.565872 
	C146.093353,73.426559 145.072403,68.732445 145.859772,65.032280 
	C146.489975,62.070694 145.987076,58.867996 145.987076,54.149391 
	C147.288345,56.830967 148.623566,58.413502 148.788162,60.109650 
	C149.937607,71.953201 148.897522,83.391914 141.994553,93.671547 
	C140.936249,95.247528 140.649200,97.341408 139.993469,99.572586 
	C132.316269,106.898338 127.798126,115.877892 124.137253,125.276817 
	C120.445709,134.754501 115.639954,144.195816 114.232292,154.067978 
	C112.337769,167.354568 112.736145,181.050690 113.064545,194.548813 
	C113.404671,208.528809 119.022408,221.117340 125.680229,233.186325 
	C127.313919,236.147797 129.414871,238.851501 132.124069,242.905258 
	C128.124680,242.074066 125.595657,241.548462 122.918228,241.327118 
z"/>
<path fill="#DBF7F9" opacity="1.000000" stroke="none" 
	d="
M118.482910,146.182144 
	C118.866989,147.514008 119.324287,149.168381 119.130875,150.742813 
	C117.831207,161.322784 116.260223,171.870911 115.078339,182.462967 
	C114.706276,185.797363 115.257736,189.234787 115.045296,192.872925 
	C112.394539,177.303864 113.795631,161.769363 118.482910,146.182144 
z"/>
<path fill="#DBF7F9" opacity="1.000000" stroke="none" 
	d="
M114.971474,195.401886 
	C116.666313,198.647354 118.476593,202.248886 119.914169,205.993500 
	C121.390434,209.838852 122.620621,213.791779 123.705894,217.766586 
	C124.055161,219.045792 123.602661,220.543915 123.177170,221.998077 
	C120.199348,213.309784 117.561310,204.565277 114.971474,195.401886 
z"/>
<path fill="#DBF7F9" opacity="1.000000" stroke="none" 
	d="
M126.501816,125.028854 
	C126.986870,132.095840 122.966423,137.831482 119.482391,143.959793 
	C121.503113,137.768555 123.863396,131.504272 126.501816,125.028854 
z"/>
<path fill="#DBF7F9" opacity="1.000000" stroke="none" 
	d="
M133.335327,112.041107 
	C133.913757,112.499397 134.665176,113.414139 134.460342,113.756142 
	C132.216125,117.503227 129.822708,121.160934 127.105438,124.811676 
	C128.848801,120.597481 130.956543,116.414543 133.335327,112.041107 
z"/>
<path fill="#DBF7F9" opacity="1.000000" stroke="none" 
	d="
M146.509079,90.995255 
	C147.078888,96.077202 144.324875,99.756897 140.121048,102.832146 
	C139.818878,102.422470 139.888336,102.054077 140.000031,101.404861 
	C142.103012,97.809509 144.163788,94.494995 146.509079,90.995255 
z"/>
<path fill="#DBF7F9" opacity="1.000000" stroke="none" 
	d="
M139.485077,102.953568 
	C138.381226,105.175079 136.979065,107.546707 135.212921,109.929176 
	C136.294891,107.661247 137.740829,105.382469 139.485077,102.953568 
z"/>
<path fill="#3877A0" opacity="1.000000" stroke="none" 
	d="
M141.130035,75.659088 
	C141.107803,76.339157 140.802460,77.087906 140.121490,77.809189 
	C140.112885,77.097061 140.479919,76.412415 141.130035,75.659088 
z"/>
</svg>