<svg version="1.1" id="Layer_1" xmlns="http://www.w3.org/2000/svg" xmlns:xlink="http://www.w3.org/1999/xlink" x="0px" y="0px"
	 width="100%" viewBox="0 0 700 700" enable-background="new 0 0 700 700" xml:space="preserve">
<path fill="#FFFFFF" opacity="1.000000" stroke="none" 
	d="
M402.000000,701.000000 
	C268.000000,701.000000 134.500000,701.000000 1.000000,701.000000 
	C1.000000,467.666656 1.000000,234.333328 1.000000,1.000000 
	C234.333328,1.000000 467.666656,1.000000 701.000000,1.000000 
	C701.000000,234.333328 701.000000,467.666656 701.000000,701.000000 
	C601.500000,701.000000 502.000000,701.000000 402.000000,701.000000 
M476.775787,329.248474 
	C476.775787,329.248474 476.532959,329.128876 476.343018,328.575745 
	C475.987946,327.893066 475.632874,327.210388 475.330322,325.769287 
	C475.263428,324.504669 475.196533,323.240082 475.289124,321.501923 
	C475.289124,321.501923 475.132263,321.027527 475.257843,320.093658 
	C475.214630,313.122284 475.171417,306.150940 475.395355,298.848694 
	C475.532990,298.577209 475.537567,298.303528 476.400391,297.835938 
	C481.227936,297.721191 486.055450,297.606445 491.586365,297.546997 
	C491.854980,295.161774 492.123596,292.776581 492.427032,290.082428 
	C486.871826,290.082428 481.935242,290.082428 476.147949,289.741882 
	C475.739166,285.875763 475.330383,282.009613 474.921814,278.145569 
	C472.076294,278.145569 469.365662,278.145569 466.308899,278.145569 
	C466.308899,282.161133 466.308899,285.780212 466.308899,289.639526 
	C463.409271,289.864166 460.840149,290.063202 458.274323,290.261993 
	C458.274323,292.819153 458.274323,295.058411 458.274323,297.546600 
	C461.113342,297.718231 463.664948,297.872498 466.401550,298.037933 
	C466.401550,300.311005 466.400116,301.966858 466.401794,303.622681 
	C466.409058,310.778503 466.255859,317.939148 466.468445,325.088898 
	C466.701141,332.915283 470.365295,337.853485 477.044098,338.668945 
	C481.898346,339.261658 486.883148,338.784760 491.682343,338.784760 
	C491.682343,336.116425 491.682343,333.874695 491.682343,331.014618 
	C487.217651,331.014618 483.084839,331.014618 478.615509,330.612061 
	C478.027100,330.244293 477.438721,329.876495 476.775787,329.248474 
M397.213226,289.960724 
	C396.135315,289.970123 395.057373,289.979492 393.145264,289.863892 
	C392.487671,290.825531 391.257019,291.787811 391.258118,292.748718 
	C391.275360,307.970398 391.450623,323.191895 391.934204,338.845306 
	C392.285004,338.892517 392.635834,338.939758 393.844727,339.028656 
	C395.562744,339.010590 397.280731,338.992523 399.434662,339.096680 
	C399.767944,339.096283 400.018768,338.952301 400.391083,338.435760 
	C400.391083,338.435760 400.409637,338.129700 400.801941,337.397919 
	C400.671234,323.852142 400.540558,310.306335 400.454071,296.257050 
	C400.447205,295.920349 400.440338,295.583649 400.786591,294.732452 
	C400.662201,293.739746 400.537781,292.747009 400.396240,291.061157 
	C400.328064,290.840332 400.259888,290.619507 399.768433,289.994995 
	C399.185822,289.994659 398.603241,289.994324 397.213226,289.960724 
M127.694778,420.371674 
	C127.426376,420.145905 127.118492,420.057587 126.373810,420.087738 
	C126.373810,420.087738 126.014343,419.917419 125.848129,419.186035 
	C124.192749,418.812439 122.537369,418.438843 120.420204,418.014008 
	C120.420204,418.014008 119.999893,417.816040 119.701721,417.408356 
	C119.387375,417.308960 119.073029,417.209564 118.075157,416.987671 
	C115.956711,415.962799 113.838272,414.937927 111.719833,413.913086 
	C113.915359,419.515961 116.923027,424.232971 119.517166,429.167389 
	C124.408539,438.471497 132.103622,440.964844 141.664001,438.273193 
	C153.116150,435.048950 164.442337,431.377289 176.632965,427.971741 
	C183.915771,427.052948 187.638458,424.082153 188.538712,418.538116 
	C189.269897,417.451141 190.194183,416.447052 190.702103,415.264191 
	C195.234650,404.708496 195.855179,393.655151 194.487442,382.434418 
	C191.996048,361.995361 184.774002,343.006195 175.354218,324.951965 
	C164.314438,303.792755 152.381531,283.099518 140.836029,262.204163 
	C140.336975,262.254517 139.837921,262.304871 139.338882,262.355225 
	C138.528091,268.342712 138.160156,274.435333 136.771667,280.285706 
	C135.580612,285.304169 135.640457,289.636108 137.595444,294.594604 
	C146.445251,317.040802 154.883118,339.697327 159.310471,363.504425 
	C162.802795,382.283691 166.742783,401.386749 152.937622,418.716400 
	C154.746933,419.616272 156.351883,420.414520 157.996017,422.114838 
	C158.133987,423.020294 158.271957,423.925781 157.722961,424.901855 
	C157.318161,424.713257 156.913376,424.524658 155.593811,424.149811 
	C153.974823,423.904999 152.362579,423.523438 150.735489,423.443390 
	C147.144119,423.266602 143.545258,423.241730 139.202957,423.155029 
	C138.467163,423.039246 137.731369,422.923462 136.629654,422.235016 
	C134.409607,421.860626 132.189545,421.486206 129.295639,421.093719 
	C128.861481,420.982941 128.427322,420.872131 127.694778,420.371674 
M118.229828,272.709351 
	C115.031670,275.867706 111.851402,279.044403 108.632286,282.181244 
	C94.527618,295.925385 81.278923,310.353180 71.608070,327.712982 
	C64.971245,339.626495 60.623932,352.284271 59.236057,365.856293 
	C57.656116,381.306610 61.678616,395.265076 71.472870,407.341522 
	C84.425133,423.311676 101.547295,432.724060 121.986328,439.033478 
	C120.049637,436.463165 118.853203,434.883972 117.665771,433.298065 
	C105.501396,417.051117 98.354698,398.876465 96.950722,378.583160 
	C94.778709,347.188477 104.432159,319.234497 122.141785,293.746521 
	C128.507141,284.585449 133.354233,274.838562 134.496155,263.638702 
	C135.783936,251.008636 132.289932,239.851883 122.849678,229.483490 
	C127.060516,245.070724 131.421265,259.573212 118.229828,272.709351 
M275.926849,339.902008 
	C286.155243,336.627045 290.286682,331.184448 290.384888,320.501648 
	C290.478333,310.340637 290.361328,300.177826 290.421997,290.016327 
	C290.466095,282.623169 293.635803,278.861877 299.612396,278.874481 
	C305.384918,278.886658 308.527008,282.826874 308.589294,290.223450 
	C308.631378,295.220764 308.599518,300.218658 308.599701,305.216309 
	C308.600067,316.350006 308.599792,327.483704 308.599792,338.629211 
	C311.955811,338.629211 314.835297,338.629211 317.872894,338.629211 
	C317.872894,321.422974 318.100830,304.608795 317.689117,287.810272 
	C317.602142,284.261444 315.791992,280.336670 313.694183,277.343018 
	C309.411316,271.231171 300.879120,269.145599 293.485626,271.573273 
	C285.940186,274.050781 281.207031,280.507294 281.089996,289.068085 
	C280.937408,300.227478 281.104797,311.390869 281.006531,322.551453 
	C280.960968,327.728821 277.685120,331.446838 273.144989,331.900269 
	C268.330383,332.381134 264.364746,329.161499 263.457062,323.848114 
	C263.151398,322.058807 263.181366,320.200562 263.175507,318.373474 
	C263.142365,308.045349 263.349854,297.711670 263.075317,287.390533 
	C262.821930,277.864563 255.145462,270.835602 245.386261,270.638885 
	C235.652130,270.442719 227.231766,277.259125 227.028702,286.598877 
	C226.655884,303.744690 226.956879,320.905243 227.007217,338.059540 
	C227.007935,338.306458 227.400314,338.552185 227.594116,338.779938 
	C230.222565,338.779938 232.827682,338.779938 235.965195,338.779938 
	C235.965195,336.920227 235.965195,335.303284 235.965195,333.686340 
	C235.965195,319.193176 235.940231,304.699951 235.975555,290.206879 
	C235.993729,282.748749 239.073181,278.926910 244.941238,278.888245 
	C250.893692,278.849030 254.031647,282.682404 254.037933,290.041016 
	C254.046356,299.869690 254.013367,309.698456 254.040314,319.527039 
	C254.078705,333.526855 261.148224,340.392395 275.926849,339.902008 
M308.343323,419.446350 
	C308.343323,422.529175 308.343323,425.612030 308.343323,428.698822 
	C311.966125,428.698822 314.718750,428.698822 317.458130,428.698822 
	C317.673706,427.922821 317.915497,427.457184 317.916229,426.991180 
	C317.942017,410.828735 318.186707,394.660004 317.769836,378.508453 
	C317.673828,374.788757 316.034454,370.591400 313.819763,367.549988 
	C308.985809,360.911560 300.799530,358.958862 293.177094,361.615387 
	C285.715179,364.216003 281.123718,370.807007 281.056274,379.334381 
	C280.967957,390.497711 281.086426,401.662903 280.968323,412.825745 
	C280.915436,417.828247 277.301880,421.662598 272.818298,421.922760 
	C268.378510,422.180359 264.695190,419.232361 263.742767,414.413055 
	C263.327057,412.309570 263.177551,410.125092 263.162811,407.975586 
	C263.091919,397.645355 263.312714,387.308990 263.032715,376.985565 
	C262.783875,367.810944 255.180450,360.939880 245.517471,360.590424 
	C236.055893,360.248291 227.289764,367.018158 227.100174,375.917480 
	C226.731339,393.230286 227.058075,410.558014 227.124939,427.879456 
	C227.125946,428.139496 227.490265,428.398163 227.722122,428.706848 
	C230.277756,428.706848 232.859497,428.706848 235.732208,428.706848 
	C235.821167,426.777069 235.959412,425.147552 235.961502,423.517853 
	C235.980118,409.021393 235.934128,394.524750 235.993439,380.028503 
	C236.022781,372.856384 239.502747,368.789886 245.244965,368.935699 
	C250.762756,369.075775 253.991440,373.110168 254.012833,379.983063 
	C254.046555,390.813629 253.842377,401.649384 254.115524,412.473480 
	C254.361572,422.223724 261.428162,429.523651 270.505585,430.035553 
	C281.205780,430.639008 288.623749,424.773682 290.114258,414.439728 
	C290.445526,412.143005 290.639801,409.807037 290.654510,407.487610 
	C290.716919,397.657074 290.557617,387.823517 290.738373,377.995880 
	C290.857422,371.523712 295.721008,367.763611 301.740631,369.082733 
	C305.917725,369.998108 308.332153,373.446350 308.353821,378.972900 
	C308.405487,392.136139 308.351807,405.299805 308.343323,419.446350 
M379.759216,412.515350 
	C379.744202,409.519897 379.809540,406.521515 379.700073,403.529510 
	C379.240051,390.951874 371.286591,381.120880 360.074982,379.193573 
	C339.409973,375.641174 324.547455,391.895233 329.748627,412.342468 
	C331.914368,420.856567 336.663971,427.249451 345.432800,429.364288 
	C354.199066,431.478516 362.325104,430.152679 368.292023,422.381500 
	C368.615051,421.960754 369.310303,421.825836 370.082031,421.429657 
	C370.301117,424.078308 370.488647,426.345612 370.683350,428.699707 
	C373.765045,428.699707 376.495087,428.699707 379.762421,428.699707 
	C379.762421,423.417542 379.762421,418.462830 379.759216,412.515350 
M446.252197,379.322632 
	C435.387360,382.931946 429.077515,390.852600 428.347992,402.553101 
	C427.712646,412.743439 431.780640,420.752319 440.890594,425.694122 
	C449.675446,430.459595 459.151306,429.006531 468.451447,428.778870 
	C468.451447,425.951538 468.451447,423.735474 468.451447,421.425232 
	C456.909698,420.066742 442.861450,425.054138 438.043274,407.776245 
	C440.371582,407.776245 442.010101,407.777649 443.648651,407.776031 
	C452.631073,407.767212 461.617249,407.884064 470.592163,407.619781 
	C472.032837,407.577332 474.444458,406.031433 474.677826,404.841400 
	C476.806824,393.985352 469.246582,382.107208 458.477478,379.604736 
	C454.842987,378.760162 450.897583,379.253662 446.252197,379.322632 
M594.778748,326.609344 
	C603.800476,340.818634 617.862061,339.294769 631.749268,338.825684 
	C631.749268,336.194214 631.749268,333.952759 631.749268,331.224731 
	C627.326965,331.224731 623.148987,331.617188 619.082703,331.111389 
	C615.226501,330.631683 611.182129,329.801666 607.779602,328.043518 
	C604.126770,326.156006 601.596375,322.764526 602.188904,317.492828 
	C614.190796,317.492828 625.943970,317.492828 638.055298,317.492828 
	C638.055298,314.975342 638.117188,312.992889 638.045044,311.015320 
	C637.624634,299.488586 630.245911,290.567413 619.945862,289.087433 
	C607.825562,287.345917 597.697754,293.111053 593.696045,304.116211 
	C591.022095,311.469727 591.117981,318.776672 594.778748,326.609344 
M346.684448,289.959625 
	C333.501312,295.048859 326.980194,305.975159 329.148529,319.341522 
	C330.965027,330.539062 340.960510,339.486359 352.190918,340.086609 
	C363.116028,340.670502 371.955994,336.967163 377.151978,327.052124 
	C382.197540,317.424103 381.806274,307.605865 375.157013,298.841400 
	C368.184875,289.651367 358.516083,287.305450 346.684448,289.959625 
M434.515839,289.950989 
	C432.019897,289.959290 429.522858,289.921844 427.028259,289.984222 
	C418.345551,290.201233 412.145569,296.094940 412.110626,304.124023 
	C412.075775,312.130249 417.708374,317.488373 426.685333,317.842224 
	C430.673126,317.999390 434.683197,317.737061 438.658844,318.014038 
	C442.338196,318.270386 444.463837,320.645416 444.461334,324.266998 
	C444.458954,327.709991 442.834778,330.419189 439.083679,331.014404 
	C437.292877,331.298615 435.435516,331.204376 433.608093,331.209839 
	C427.166107,331.229095 420.724030,331.217346 414.169861,331.217346 
	C414.169861,334.127411 414.169861,336.372314 414.169861,338.931183 
	C423.223633,338.931183 432.006775,338.977051 440.788300,338.880310 
	C442.062866,338.866241 443.388916,338.301819 444.590668,337.766479 
	C451.050629,334.888885 454.526062,328.047455 453.217743,320.939880 
	C451.979065,314.210938 447.463074,310.365753 439.861694,309.884216 
	C435.882690,309.632141 431.871460,309.901459 427.889954,309.671997 
	C424.014832,309.448700 420.916718,307.828705 421.170502,303.354034 
	C421.402863,299.257843 424.277649,297.776825 428.070801,297.763947 
	C432.397003,297.749268 436.723267,297.762329 441.049500,297.762970 
	C443.631989,297.763336 446.214478,297.763031 448.752747,297.763031 
	C448.752747,294.732056 448.752747,292.493225 448.752747,289.949982 
	C444.111755,289.949982 439.809052,289.949982 434.515839,289.950989 
M511.877106,298.561615 
	C511.877106,295.798401 511.877106,293.035187 511.877106,290.202515 
	C508.564911,290.202515 505.975006,290.202515 503.483521,290.202515 
	C503.250153,290.746582 503.017029,291.037842 503.015472,291.330383 
	C502.966370,300.646637 502.860596,309.963654 502.930481,319.279297 
	C503.010834,329.987610 510.274536,338.200134 520.948792,339.871399 
	C533.294312,341.804382 545.551514,336.193848 547.358093,325.706818 
	C549.355835,314.110260 548.810791,302.075684 549.377747,290.134674 
	C545.465088,290.134674 542.832275,290.134674 539.726379,290.134674 
	C539.726379,299.434631 539.782837,308.552399 539.710327,317.669128 
	C539.639587,326.558136 534.037231,332.374054 525.655518,332.430206 
	C517.535095,332.484619 512.049438,326.797577 511.908325,318.016479 
	C511.809418,311.861542 511.881287,305.703857 511.877106,298.561615 
M421.102478,380.166046 
	C416.160492,380.166046 411.218506,380.166046 405.564301,380.166046 
	C405.564301,376.747772 405.394501,374.128510 405.606323,371.540466 
	C405.884674,368.138977 404.332825,367.196014 401.195618,367.331360 
	C398.339447,367.454590 395.764099,367.330750 396.106384,371.428802 
	C396.333679,374.150238 396.149506,376.906036 396.149506,379.635803 
	C392.992004,379.885956 390.720978,380.065887 388.221161,380.263916 
	C388.221161,382.786041 388.221161,385.013245 388.221161,387.469910 
	C390.886078,387.754852 393.286682,388.011536 396.151550,388.317841 
	C396.151550,397.396576 396.058655,406.181183 396.179749,414.962830 
	C396.284088,422.527222 400.171021,427.934814 406.653625,428.718597 
	C411.518188,429.306732 416.510925,428.834747 421.680481,428.834747 
	C421.680481,426.191467 421.680481,423.963867 421.680481,421.123657 
	C418.113190,421.123657 414.698364,421.677673 411.594818,420.933533 
	C409.439545,420.416779 406.143066,418.202698 406.052582,416.595123 
	C405.524933,407.220917 405.794067,397.801849 405.794067,387.773804 
	C411.435120,387.773804 416.500153,387.773804 421.781281,387.773804 
	C421.781281,385.026154 421.781281,382.904510 421.102478,380.166046 
M562.375305,314.509155 
	C562.375305,322.593658 562.375305,330.678192 562.375305,338.764771 
	C565.750732,338.764771 568.343079,338.764771 571.286011,338.764771 
	C571.286011,327.505676 571.217041,316.530182 571.313599,305.556152 
	C571.365845,299.615417 573.225403,297.885223 579.134583,297.783051 
	C581.538757,297.741486 583.944336,297.776184 586.237854,297.776184 
	C586.237854,294.654510 586.237854,292.423553 586.237854,289.994568 
	C582.335510,289.994568 578.840820,289.860962 575.359741,290.021851 
	C567.663818,290.377594 563.006470,294.852325 562.464172,302.525848 
	C562.206360,306.172699 562.391235,309.850769 562.375305,314.509155 
M396.405975,282.241516 
	C401.463928,280.635834 403.758728,277.001282 401.202393,273.740387 
	C399.851990,272.017853 396.754883,270.500000 394.743958,270.811340 
	C392.988556,271.083069 390.704895,273.871948 390.334900,275.861237 
	C389.675690,279.405426 392.058868,281.642029 396.405975,282.241516 
z"/>
<path fill="#1F75B2" opacity="1.000000" stroke="none" 
	d="
M118.480255,272.455292 
	C131.421265,259.573212 127.060516,245.070724 122.849678,229.483490 
	C132.289932,239.851883 135.783936,251.008636 134.496155,263.638702 
	C133.354233,274.838562 128.507141,284.585449 122.141785,293.746521 
	C104.432159,319.234497 94.778709,347.188477 96.950722,378.583160 
	C98.354698,398.876465 105.501396,417.051117 117.665771,433.298065 
	C118.853203,434.883972 120.049637,436.463165 121.986328,439.033478 
	C101.547295,432.724060 84.425133,423.311676 71.472870,407.341522 
	C61.678616,395.265076 57.656116,381.306610 59.236057,365.856293 
	C60.623932,352.284271 64.971245,339.626495 71.608070,327.712982 
	C81.278923,310.353180 94.527618,295.925385 108.632286,282.181244 
	C111.851402,279.044403 115.031670,275.867706 118.480255,272.455292 
z"/>
<path fill="#5EC7C1" opacity="1.000000" stroke="none" 
	d="
M157.956848,421.212769 
	C156.351883,420.414520 154.746933,419.616272 152.937622,418.716400 
	C166.742783,401.386749 162.802795,382.283691 159.310471,363.504425 
	C154.883118,339.697327 146.445251,317.040802 137.595444,294.594604 
	C135.640457,289.636108 135.580612,285.304169 136.771667,280.285706 
	C138.160156,274.435333 138.528091,268.342712 139.338882,262.355225 
	C139.837921,262.304871 140.336975,262.254517 140.836029,262.204163 
	C152.381531,283.099518 164.314438,303.792755 175.354218,324.951965 
	C184.774002,343.006195 191.996048,361.995361 194.487442,382.434418 
	C195.855179,393.655151 195.234650,404.708496 190.702103,415.264191 
	C190.194183,416.447052 189.269897,417.451141 187.853683,418.727722 
	C177.601181,421.843262 167.925659,423.394196 157.956848,421.212769 
z"/>
<path fill="#2375AF" opacity="1.000000" stroke="none" 
	d="
M275.497437,339.951447 
	C261.148224,340.392395 254.078705,333.526855 254.040314,319.527039 
	C254.013367,309.698456 254.046356,299.869690 254.037933,290.041016 
	C254.031647,282.682404 250.893692,278.849030 244.941238,278.888245 
	C239.073181,278.926910 235.993729,282.748749 235.975555,290.206879 
	C235.940231,304.699951 235.965195,319.193176 235.965195,333.686340 
	C235.965195,335.303284 235.965195,336.920227 235.965195,338.779938 
	C232.827682,338.779938 230.222565,338.779938 227.594116,338.779938 
	C227.400314,338.552185 227.007935,338.306458 227.007217,338.059540 
	C226.956879,320.905243 226.655884,303.744690 227.028702,286.598877 
	C227.231766,277.259125 235.652130,270.442719 245.386261,270.638885 
	C255.145462,270.835602 262.821930,277.864563 263.075317,287.390533 
	C263.349854,297.711670 263.142365,308.045349 263.175507,318.373474 
	C263.181366,320.200562 263.151398,322.058807 263.457062,323.848114 
	C264.364746,329.161499 268.330383,332.381134 273.144989,331.900269 
	C277.685120,331.446838 280.960968,327.728821 281.006531,322.551453 
	C281.104797,311.390869 280.937408,300.227478 281.089996,289.068085 
	C281.207031,280.507294 285.940186,274.050781 293.485626,271.573273 
	C300.879120,269.145599 309.411316,271.231171 313.694183,277.343018 
	C315.791992,280.336670 317.602142,284.261444 317.689117,287.810272 
	C318.100830,304.608795 317.872894,321.422974 317.872894,338.629211 
	C314.835297,338.629211 311.955811,338.629211 308.599792,338.629211 
	C308.599792,327.483704 308.600067,316.350006 308.599701,305.216309 
	C308.599518,300.218658 308.631378,295.220764 308.589294,290.223450 
	C308.527008,282.826874 305.384918,278.886658 299.612396,278.874481 
	C293.635803,278.861877 290.466095,282.623169 290.421997,290.016327 
	C290.361328,300.177826 290.478333,310.340637 290.384888,320.501648 
	C290.286682,331.184448 286.155243,336.627045 275.497437,339.951447 
z"/>
<path fill="#63C6BF" opacity="1.000000" stroke="none" 
	d="
M308.341980,418.954834 
	C308.351807,405.299805 308.405487,392.136139 308.353821,378.972900 
	C308.332153,373.446350 305.917725,369.998108 301.740631,369.082733 
	C295.721008,367.763611 290.857422,371.523712 290.738373,377.995880 
	C290.557617,387.823517 290.716919,397.657074 290.654510,407.487610 
	C290.639801,409.807037 290.445526,412.143005 290.114258,414.439728 
	C288.623749,424.773682 281.205780,430.639008 270.505585,430.035553 
	C261.428162,429.523651 254.361572,422.223724 254.115524,412.473480 
	C253.842377,401.649384 254.046555,390.813629 254.012833,379.983063 
	C253.991440,373.110168 250.762756,369.075775 245.244965,368.935699 
	C239.502747,368.789886 236.022781,372.856384 235.993439,380.028503 
	C235.934128,394.524750 235.980118,409.021393 235.961502,423.517853 
	C235.959412,425.147552 235.821167,426.777069 235.732208,428.706848 
	C232.859497,428.706848 230.277756,428.706848 227.722122,428.706848 
	C227.490265,428.398163 227.125946,428.139496 227.124939,427.879456 
	C227.058075,410.558014 226.731339,393.230286 227.100174,375.917480 
	C227.289764,367.018158 236.055893,360.248291 245.517471,360.590424 
	C255.180450,360.939880 262.783875,367.810944 263.032715,376.985565 
	C263.312714,387.308990 263.091919,397.645355 263.162811,407.975586 
	C263.177551,410.125092 263.327057,412.309570 263.742767,414.413055 
	C264.695190,419.232361 268.378510,422.180359 272.818298,421.922760 
	C277.301880,421.662598 280.915436,417.828247 280.968323,412.825745 
	C281.086426,401.662903 280.967957,390.497711 281.056274,379.334381 
	C281.123718,370.807007 285.715179,364.216003 293.177094,361.615387 
	C300.799530,358.958862 308.985809,360.911560 313.819763,367.549988 
	C316.034454,370.591400 317.673828,374.788757 317.769836,378.508453 
	C318.186707,394.660004 317.942017,410.828735 317.916229,426.991180 
	C317.915497,427.457184 317.673706,427.922821 317.458130,428.698822 
	C314.718750,428.698822 311.966125,428.698822 308.343323,428.698822 
	C308.343323,425.612030 308.343323,422.529175 308.341980,418.954834 
z"/>
<path fill="#64C7C0" opacity="1.000000" stroke="none" 
	d="
M379.760803,413.011749 
	C379.762421,418.462830 379.762421,423.417542 379.762421,428.699707 
	C376.495087,428.699707 373.765045,428.699707 370.683350,428.699707 
	C370.488647,426.345612 370.301117,424.078308 370.082031,421.429657 
	C369.310303,421.825836 368.615051,421.960754 368.292023,422.381500 
	C362.325104,430.152679 354.199066,431.478516 345.432800,429.364288 
	C336.663971,427.249451 331.914368,420.856567 329.748627,412.342468 
	C324.547455,391.895233 339.409973,375.641174 360.074982,379.193573 
	C371.286591,381.120880 379.240051,390.951874 379.700073,403.529510 
	C379.809540,406.521515 379.744202,409.519897 379.760803,413.011749 
M363.150635,419.907410 
	C370.511688,413.756226 372.632294,402.477325 367.984741,394.196198 
	C364.010864,387.115417 353.703369,384.266510 346.575684,388.278839 
	C338.259430,392.960297 335.347656,404.688995 340.136414,414.216522 
	C344.115173,422.132507 353.203308,424.606079 363.150635,419.907410 
z"/>
<path fill="#65C7C1" opacity="1.000000" stroke="none" 
	d="
M446.673218,379.229126 
	C450.897583,379.253662 454.842987,378.760162 458.477478,379.604736 
	C469.246582,382.107208 476.806824,393.985352 474.677826,404.841400 
	C474.444458,406.031433 472.032837,407.577332 470.592163,407.619781 
	C461.617249,407.884064 452.631073,407.767212 443.648651,407.776031 
	C442.010101,407.777649 440.371582,407.776245 438.043274,407.776245 
	C442.861450,425.054138 456.909698,420.066742 468.451447,421.425232 
	C468.451447,423.735474 468.451447,425.951538 468.451447,428.778870 
	C459.151306,429.006531 449.675446,430.459595 440.890594,425.694122 
	C431.780640,420.752319 427.712646,412.743439 428.347992,402.553101 
	C429.077515,390.852600 435.387360,382.931946 446.673218,379.229126 
M454.710907,386.666534 
	C445.666565,385.167145 438.764038,391.066345 438.443573,400.730499 
	C447.456665,400.730499 456.460724,400.730499 465.497437,400.730499 
	C464.633545,392.185089 462.079254,388.724762 454.710907,386.666534 
z"/>
<path fill="#2978B1" opacity="1.000000" stroke="none" 
	d="
M594.579346,326.286865 
	C591.117981,318.776672 591.022095,311.469727 593.696045,304.116211 
	C597.697754,293.111053 607.825562,287.345917 619.945862,289.087433 
	C630.245911,290.567413 637.624634,299.488586 638.045044,311.015320 
	C638.117188,312.992889 638.055298,314.975342 638.055298,317.492828 
	C625.943970,317.492828 614.190796,317.492828 602.188904,317.492828 
	C601.596375,322.764526 604.126770,326.156006 607.779602,328.043518 
	C611.182129,329.801666 615.226501,330.631683 619.082703,331.111389 
	C623.148987,331.617188 627.326965,331.224731 631.749268,331.224731 
	C631.749268,333.952759 631.749268,336.194214 631.749268,338.825684 
	C617.862061,339.294769 603.800476,340.818634 594.579346,326.286865 
M603.227234,303.997375 
	C602.553589,306.167938 601.879944,308.338531 601.091797,310.877991 
	C610.632874,310.877991 619.652710,310.877991 628.662170,310.877991 
	C628.930237,303.953583 625.811218,298.942993 620.232117,297.056915 
	C613.676880,294.840912 608.275635,296.891724 603.227234,303.997375 
z"/>
<path fill="#2676B0" opacity="1.000000" stroke="none" 
	d="
M347.088318,289.858459 
	C358.516083,287.305450 368.184875,289.651367 375.157013,298.841400 
	C381.806274,307.605865 382.197540,317.424103 377.151978,327.052124 
	C371.955994,336.967163 363.116028,340.670502 352.190918,340.086609 
	C340.960510,339.486359 330.965027,330.539062 329.148529,319.341522 
	C326.980194,305.975159 333.501312,295.048859 347.088318,289.858459 
M352.782074,296.727020 
	C343.333893,298.132751 337.949097,304.465179 337.884064,314.246979 
	C337.819824,323.903046 343.283783,331.017853 351.701569,332.239349 
	C361.951111,333.726654 370.054077,327.201874 371.163727,317.011322 
	C372.402924,305.630829 364.678101,295.542511 352.782074,296.727020 
z"/>
<path fill="#2877AF" opacity="1.000000" stroke="none" 
	d="
M435.011108,289.950500 
	C439.809052,289.949982 444.111755,289.949982 448.752747,289.949982 
	C448.752747,292.493225 448.752747,294.732056 448.752747,297.763031 
	C446.214478,297.763031 443.631989,297.763336 441.049500,297.762970 
	C436.723267,297.762329 432.397003,297.749268 428.070801,297.763947 
	C424.277649,297.776825 421.402863,299.257843 421.170502,303.354034 
	C420.916718,307.828705 424.014832,309.448700 427.889954,309.671997 
	C431.871460,309.901459 435.882690,309.632141 439.861694,309.884216 
	C447.463074,310.365753 451.979065,314.210938 453.217743,320.939880 
	C454.526062,328.047455 451.050629,334.888885 444.590668,337.766479 
	C443.388916,338.301819 442.062866,338.866241 440.788300,338.880310 
	C432.006775,338.977051 423.223633,338.931183 414.169861,338.931183 
	C414.169861,336.372314 414.169861,334.127411 414.169861,331.217346 
	C420.724030,331.217346 427.166107,331.229095 433.608093,331.209839 
	C435.435516,331.204376 437.292877,331.298615 439.083679,331.014404 
	C442.834778,330.419189 444.458954,327.709991 444.461334,324.266998 
	C444.463837,320.645416 442.338196,318.270386 438.658844,318.014038 
	C434.683197,317.737061 430.673126,317.999390 426.685333,317.842224 
	C417.708374,317.488373 412.075775,312.130249 412.110626,304.124023 
	C412.145569,296.094940 418.345551,290.201233 427.028259,289.984222 
	C429.522858,289.921844 432.019897,289.959290 435.011108,289.950500 
z"/>
<path fill="#2676AF" opacity="1.000000" stroke="none" 
	d="
M511.876984,299.054504 
	C511.881287,305.703857 511.809418,311.861542 511.908325,318.016479 
	C512.049438,326.797577 517.535095,332.484619 525.655518,332.430206 
	C534.037231,332.374054 539.639587,326.558136 539.710327,317.669128 
	C539.782837,308.552399 539.726379,299.434631 539.726379,290.134674 
	C542.832275,290.134674 545.465088,290.134674 549.377747,290.134674 
	C548.810791,302.075684 549.355835,314.110260 547.358093,325.706818 
	C545.551514,336.193848 533.294312,341.804382 520.948792,339.871399 
	C510.274536,338.200134 503.010834,329.987610 502.930481,319.279297 
	C502.860596,309.963654 502.966370,300.646637 503.015472,291.330383 
	C503.017029,291.037842 503.250153,290.746582 503.483521,290.202515 
	C505.975006,290.202515 508.564911,290.202515 511.877106,290.202515 
	C511.877106,293.035187 511.877106,295.798401 511.876984,299.054504 
z"/>
<path fill="#66C7C0" opacity="1.000000" stroke="none" 
	d="
M421.441895,380.474457 
	C421.781281,382.904510 421.781281,385.026154 421.781281,387.773804 
	C416.500153,387.773804 411.435120,387.773804 405.794067,387.773804 
	C405.794067,397.801849 405.524933,407.220917 406.052582,416.595123 
	C406.143066,418.202698 409.439545,420.416779 411.594818,420.933533 
	C414.698364,421.677673 418.113190,421.123657 421.680481,421.123657 
	C421.680481,423.963867 421.680481,426.191467 421.680481,428.834747 
	C416.510925,428.834747 411.518188,429.306732 406.653625,428.718597 
	C400.171021,427.934814 396.284088,422.527222 396.179749,414.962830 
	C396.058655,406.181183 396.151550,397.396576 396.151550,388.317841 
	C393.286682,388.011536 390.886078,387.754852 388.221161,387.469910 
	C388.221161,385.013245 388.221161,382.786041 388.221161,380.263916 
	C390.720978,380.065887 392.992004,379.885956 396.149506,379.635803 
	C396.149506,376.906036 396.333679,374.150238 396.106384,371.428802 
	C395.764099,367.330750 398.339447,367.454590 401.195618,367.331360 
	C404.332825,367.196014 405.884674,368.138977 405.606323,371.540466 
	C405.394501,374.128510 405.564301,376.747772 405.564301,380.166046 
	C411.218506,380.166046 416.160492,380.166046 421.441895,380.474457 
z"/>
<path fill="#2375AF" opacity="1.000000" stroke="none" 
	d="
M475.129639,321.975464 
	C475.196533,323.240082 475.263428,324.504669 475.229370,326.475708 
	C475.596588,327.831055 476.064789,328.479950 476.532959,329.128876 
	C476.532959,329.128876 476.775787,329.248474 476.902985,329.650482 
	C477.670807,330.373199 478.311401,330.693909 478.952026,331.014618 
	C483.084839,331.014618 487.217651,331.014618 491.682343,331.014618 
	C491.682343,333.874695 491.682343,336.116425 491.682343,338.784760 
	C486.883148,338.784760 481.898346,339.261658 477.044098,338.668945 
	C470.365295,337.853485 466.701141,332.915283 466.468445,325.088898 
	C466.255859,317.939148 466.409058,310.778503 466.401794,303.622681 
	C466.400116,301.966858 466.401550,300.311005 466.401550,298.037933 
	C463.664948,297.872498 461.113342,297.718231 458.274323,297.546600 
	C458.274323,295.058411 458.274323,292.819153 458.274323,290.261993 
	C460.840149,290.063202 463.409271,289.864166 466.308899,289.639526 
	C466.308899,285.780212 466.308899,282.161133 466.308899,278.145569 
	C469.365662,278.145569 472.076294,278.145569 474.921814,278.145569 
	C475.330383,282.009613 475.739166,285.875763 476.885834,290.182251 
	C481.948059,290.835724 486.272430,291.048798 490.882996,291.275970 
	C490.882996,293.638489 490.882996,295.565063 490.882996,297.491669 
	C486.055450,297.606445 481.227936,297.721191 475.781525,298.097412 
	C475.031525,298.627319 475.020050,298.900879 475.128235,299.179565 
	C475.171417,306.150940 475.214630,313.122284 475.011353,320.630737 
	C474.886475,321.437012 475.008057,321.706238 475.129639,321.975464 
z"/>
<path fill="#3BA8D7" opacity="1.000000" stroke="none" 
	d="
M156.508591,424.336060 
	C156.913376,424.524658 157.318161,424.713257 158.410828,424.975952 
	C165.532425,425.050018 171.966141,425.050018 179.536636,425.050018 
	C177.589142,426.544281 176.706100,427.221832 175.823059,427.899384 
	C164.442337,431.377289 153.116150,435.048950 141.664001,438.273193 
	C132.103622,440.964844 124.408539,438.471497 119.517166,429.167389 
	C116.923027,424.232971 113.915359,419.515961 111.719833,413.913086 
	C113.838272,414.937927 115.956711,415.962799 118.555054,417.269714 
	C119.356598,417.639862 119.678246,417.727966 119.999893,417.816040 
	C119.999893,417.816040 120.420204,418.014008 120.876801,418.306641 
	C122.893715,419.038635 124.454033,419.478027 126.014343,419.917419 
	C126.014343,419.917419 126.373810,420.087738 126.710022,420.309753 
	C127.361877,420.608276 127.677521,420.684814 127.993164,420.761353 
	C128.427322,420.872131 128.861481,420.982941 129.897522,421.348022 
	C132.664795,422.004120 134.830185,422.405884 136.995575,422.807648 
	C137.731369,422.923462 138.467163,423.039246 139.890625,423.394531 
	C145.888397,423.868073 151.198502,424.102051 156.508591,424.336060 
z"/>
<path fill="#2978B1" opacity="1.000000" stroke="none" 
	d="
M562.375488,314.011932 
	C562.391235,309.850769 562.206360,306.172699 562.464172,302.525848 
	C563.006470,294.852325 567.663818,290.377594 575.359741,290.021851 
	C578.840820,289.860962 582.335510,289.994568 586.237854,289.994568 
	C586.237854,292.423553 586.237854,294.654510 586.237854,297.776184 
	C583.944336,297.776184 581.538757,297.741486 579.134583,297.783051 
	C573.225403,297.885223 571.365845,299.615417 571.313599,305.556152 
	C571.217041,316.530182 571.286011,327.505676 571.286011,338.764771 
	C568.343079,338.764771 565.750732,338.764771 562.375305,338.764771 
	C562.375305,330.678192 562.375305,322.593658 562.375488,314.011932 
z"/>
<path fill="#1E72AF" opacity="1.000000" stroke="none" 
	d="
M400.191681,290.398621 
	C400.259888,290.619507 400.328064,290.840332 400.243713,291.831665 
	C400.205322,293.483795 400.319397,294.365356 400.433472,295.246948 
	C400.440338,295.583649 400.447205,295.920349 400.267029,296.972229 
	C400.189880,311.168152 400.299744,324.648926 400.409607,338.129700 
	C400.409637,338.129700 400.391083,338.435760 400.118652,338.404358 
	C399.846252,338.372925 399.401550,338.323975 398.936462,338.233093 
	C396.585876,338.188568 394.700439,338.234985 392.816406,338.234192 
	C392.817810,338.186951 392.850128,338.098206 392.902527,337.622681 
	C392.914948,322.313049 392.875000,307.478882 392.910858,292.410767 
	C393.259430,291.769775 393.532166,291.362732 394.276550,290.971619 
	C395.984070,290.859283 397.219940,290.731049 398.750397,290.633362 
	C399.427185,290.575500 399.809448,290.487061 400.191681,290.398621 
z"/>
<path fill="#2877AF" opacity="1.000000" stroke="none" 
	d="
M396.052246,282.233215 
	C392.058868,281.642029 389.675690,279.405426 390.334900,275.861237 
	C390.704895,273.871948 392.988556,271.083069 394.743958,270.811340 
	C396.754883,270.500000 399.851990,272.017853 401.202393,273.740387 
	C403.758728,277.001282 401.463928,280.635834 396.052246,282.233215 
z"/>
<path fill="#DEF9FB" opacity="1.000000" stroke="none" 
	d="
M176.228012,427.935547 
	C176.706100,427.221832 177.589142,426.544281 179.536636,425.050018 
	C171.966141,425.050018 165.532425,425.050018 158.754333,424.940613 
	C158.271957,423.925781 158.133987,423.020294 157.976440,421.663788 
	C167.925659,423.394196 177.601181,421.843262 187.568100,418.921875 
	C187.638458,424.082153 183.915771,427.052948 176.228012,427.935547 
z"/>
<path fill="#7AABD2" opacity="1.000000" stroke="none" 
	d="
M393.804901,290.955719 
	C393.532166,291.362732 393.259430,291.769775 392.668884,292.783752 
	C392.251007,308.247040 392.150940,323.103363 391.934113,338.071625 
	C391.817322,338.183533 391.589691,338.413452 391.589691,338.413452 
	C391.450623,323.191895 391.275360,307.970398 391.258118,292.748718 
	C391.257019,291.787811 392.487671,290.825531 393.479065,290.160889 
	C393.812897,290.457916 393.804901,290.955719 393.804901,290.955719 
z"/>
<path fill="#7AABD2" opacity="1.000000" stroke="none" 
	d="
M400.605774,337.763794 
	C400.299744,324.648926 400.189880,311.168152 400.244934,297.223969 
	C400.540558,310.306335 400.671234,323.852142 400.605774,337.763794 
z"/>
<path fill="#5084A8" opacity="1.000000" stroke="none" 
	d="
M491.234680,297.519348 
	C490.882996,295.565063 490.882996,293.638489 490.882996,291.275970 
	C486.272430,291.048798 481.948059,290.835724 477.311188,290.352539 
	C481.935242,290.082428 486.871826,290.082428 492.427032,290.082428 
	C492.123596,292.776581 491.854980,295.161774 491.234680,297.519348 
z"/>
<path fill="#DEF9FB" opacity="1.000000" stroke="none" 
	d="
M156.051208,424.242920 
	C151.198502,424.102051 145.888397,423.868073 140.263885,423.394470 
	C143.545258,423.241730 147.144119,423.266602 150.735489,423.443390 
	C152.362579,423.523438 153.974823,423.904999 156.051208,424.242920 
z"/>
<path fill="#DEF9FB" opacity="1.000000" stroke="none" 
	d="
M136.812622,422.521332 
	C134.830185,422.405884 132.664795,422.004120 130.234436,421.357056 
	C132.189545,421.486206 134.409607,421.860626 136.812622,422.521332 
z"/>
<path fill="#DEF9FB" opacity="1.000000" stroke="none" 
	d="
M125.931236,419.551727 
	C124.454033,419.478027 122.893715,419.038635 121.107689,418.332275 
	C122.537369,418.438843 124.192749,418.812439 125.931236,419.551727 
z"/>
<path fill="#2676AF" opacity="1.000000" stroke="none" 
	d="
M392.814972,338.281372 
	C394.700439,338.234985 396.585876,338.188568 398.819458,338.385040 
	C399.167572,338.627899 398.998749,338.974487 398.998749,338.974487 
	C397.280731,338.992523 395.562744,339.010590 393.358154,338.835022 
	C392.871552,338.641357 392.814972,338.281372 392.814972,338.281372 
z"/>
<path fill="#2676AF" opacity="1.000000" stroke="none" 
	d="
M394.276550,290.971619 
	C393.804901,290.955719 393.812897,290.457916 393.896179,290.223389 
	C395.057373,289.979492 396.135315,289.970123 397.703125,290.145691 
	C398.192993,290.330627 398.455841,290.602814 398.455841,290.602783 
	C397.219940,290.731049 395.984070,290.859283 394.276550,290.971619 
z"/>
<path fill="#5084A8" opacity="1.000000" stroke="none" 
	d="
M476.437988,328.852295 
	C476.064789,328.479950 475.596588,327.831055 475.203094,326.854919 
	C475.632874,327.210388 475.987946,327.893066 476.437988,328.852295 
z"/>
<path fill="#5084A8" opacity="1.000000" stroke="none" 
	d="
M478.783752,330.813354 
	C478.311401,330.693909 477.670807,330.373199 476.940247,329.780579 
	C477.438721,329.876495 478.027100,330.244293 478.783752,330.813354 
z"/>
<path fill="#7AABD2" opacity="1.000000" stroke="none" 
	d="
M400.610046,294.989685 
	C400.319397,294.365356 400.205322,293.483795 400.252319,292.178253 
	C400.537781,292.747009 400.662201,293.739746 400.610046,294.989685 
z"/>
<path fill="#7AABD2" opacity="1.000000" stroke="none" 
	d="
M398.750397,290.633362 
	C398.455841,290.602814 398.192993,290.330627 398.106812,290.162292 
	C398.603241,289.994324 399.185822,289.994659 399.980042,290.196808 
	C399.809448,290.487061 399.427185,290.575500 398.750397,290.633362 
z"/>
<path fill="#DEF9FB" opacity="1.000000" stroke="none" 
	d="
M119.850807,417.612183 
	C119.678246,417.727966 119.356598,417.639862 118.896820,417.330963 
	C119.073029,417.209564 119.387375,417.308960 119.850807,417.612183 
z"/>
<path fill="#5084A8" opacity="1.000000" stroke="none" 
	d="
M475.261780,299.014130 
	C475.020050,298.900879 475.031525,298.627319 475.285889,298.193237 
	C475.537567,298.303528 475.532990,298.577209 475.261780,299.014130 
z"/>
<path fill="#DEF9FB" opacity="1.000000" stroke="none" 
	d="
M127.843971,420.566528 
	C127.677521,420.684814 127.361877,420.608276 126.908691,420.319214 
	C127.118492,420.057587 127.426376,420.145905 127.843971,420.566528 
z"/>
<path fill="#7AABD2" opacity="1.000000" stroke="none" 
	d="
M399.216705,339.035583 
	C398.998749,338.974487 399.167572,338.627899 399.284546,338.475952 
	C399.401550,338.323975 399.846252,338.372925 400.016693,338.518829 
	C400.018768,338.952301 399.767944,339.096283 399.216705,339.035583 
z"/>
<path fill="#7AABD2" opacity="1.000000" stroke="none" 
	d="
M392.816406,338.234161 
	C392.814972,338.281372 392.871552,338.641357 392.929077,338.814148 
	C392.635834,338.939758 392.285004,338.892517 391.761963,338.629395 
	C391.589691,338.413452 391.817322,338.183533 392.124329,338.160950 
	C392.431366,338.138367 392.850128,338.098206 392.850128,338.098206 
	C392.850128,338.098206 392.817810,338.186951 392.816406,338.234161 
z"/>
<path fill="#5084A8" opacity="1.000000" stroke="none" 
	d="
M475.209381,321.738708 
	C475.008057,321.706238 474.886475,321.437012 474.948547,321.097656 
	C475.132263,321.027527 475.289124,321.501923 475.209381,321.738708 
z"/>
<path fill="#F9FDFD" opacity="1.000000" stroke="none" 
	d="
M362.813354,420.102112 
	C353.203308,424.606079 344.115173,422.132507 340.136414,414.216522 
	C335.347656,404.688995 338.259430,392.960297 346.575684,388.278839 
	C353.703369,384.266510 364.010864,387.115417 367.984741,394.196198 
	C372.632294,402.477325 370.511688,413.756226 362.813354,420.102112 
z"/>
<path fill="#F6FDFD" opacity="1.000000" stroke="none" 
	d="
M455.096710,386.751282 
	C462.079254,388.724762 464.633545,392.185089 465.497437,400.730499 
	C456.460724,400.730499 447.456665,400.730499 438.443573,400.730499 
	C438.764038,391.066345 445.666565,385.167145 455.096710,386.751282 
z"/>
<path fill="#F6FDFD" opacity="1.000000" stroke="none" 
	d="
M603.427490,303.679443 
	C608.275635,296.891724 613.676880,294.840912 620.232117,297.056915 
	C625.811218,298.942993 628.930237,303.953583 628.662170,310.877991 
	C619.652710,310.877991 610.632874,310.877991 601.091797,310.877991 
	C601.879944,308.338531 602.553589,306.167938 603.427490,303.679443 
z"/>
<path fill="#F9FDFD" opacity="1.000000" stroke="none" 
	d="
M353.221924,296.680908 
	C364.678101,295.542511 372.402924,305.630829 371.163727,317.011322 
	C370.054077,327.201874 361.951111,333.726654 351.701569,332.239349 
	C343.283783,331.017853 337.819824,323.903046 337.884064,314.246979 
	C337.949097,304.465179 343.333893,298.132751 353.221924,296.680908 
z"/>
<path fill="#2676AF" opacity="1.000000" stroke="none" 
	d="
M392.902527,337.622681 
	C392.850128,338.098206 392.431366,338.138367 392.241150,338.049042 
	C392.150940,323.103363 392.251007,308.247040 392.593048,293.017700 
	C392.875000,307.478882 392.914948,322.313049 392.902527,337.622681 
z"/>
</svg>